<svg width="1832" height="317" viewBox="0 0 1832 317" fill="none" xmlns="http://www.w3.org/2000/svg">
<g clip-path="url(#clip0)">
<path d="M1237.5 21.9V83.7H1163.1V301.1H1085.5V83.7H1011.8V21.9H1237.5Z" fill="#363634"/>
<path d="M1336.1 21.9V301.1H1258.5V21.9H1336.1Z" fill="#363634"/>
<path d="M1644.2 21.9L1548 301.1H1448.6L1352 21.9H1435.2L1498.6 223.5L1561.6 21.9H1644.2Z" fill="#363634"/>
<path d="M1730.1 84.1V129.6H1819.2V188.6H1730.1V238.9H1831.1V301.1H1652.5V21.9H1831.1V84.1H1730.1Z" fill="#363634"/>
<path d="M141.4 301.1L86 198.1H77.7V301.1H0V21.9H122.4C144.8 21.9 163.8 25.8 179.4 33.6C195 41.4 206.7 52.1 214.6 65.7C222.5 79.3 226.5 94.5 226.5 111.4C226.5 130.4 221.3 147.1 210.9 161.5C200.5 175.9 185.2 186.1 165.2 192.2L228.2 301.1H141.4ZM77.6 145H116C126.6 145 134.5 142.5 139.8 137.5C145.1 132.5 147.7 125.2 147.7 115.7C147.7 106.7 145 99.7 139.6 94.5C134.2 89.4 126.3 86.8 116 86.8H77.6V145Z" fill="#363634"/>
<path d="M323.5 84.1V129.6H412.6V188.6H323.5V238.9H424.5V301.1H245.9V21.9H424.5V84.1H323.5Z" fill="#363634"/>
<path d="M631.6 255.5H532.6L517.6 301H436L537.8 21.9H627.3L728.7 301.1H646.7L631.6 255.5ZM612.2 196.1L582.1 105.8L552.4 196.1H612.2Z" fill="#363634"/>
<path d="M859.2 314.9C845.3 314.9 831.3 313 817.5 309.3C776.9 298.2 743.1 272 722.3 235.5C701.5 199 696.1 156.5 707.2 116C730 32.2 816.7 -17.3 900.4 5.6C941 16.7 974.8 42.9 995.6 79.4C1016.4 115.9 1021.8 158.4 1010.7 198.9C999.6 239.5 973.4 273.3 936.9 294.1C912.9 307.9 886.2 314.9 859.2 314.9ZM859 80.6C825.2 80.6 794.2 103.1 784.9 137.2C779.5 157 782.1 177.7 792.3 195.5C802.5 213.3 819 226.1 838.8 231.5C858.6 236.9 879.3 234.3 897.1 224.1C914.9 213.9 927.7 197.4 933.1 177.6C938.5 157.8 935.9 137.1 925.7 119.3C915.5 101.5 899 88.7 879.2 83.3C872.5 81.5 865.7 80.6 859 80.6Z" fill="url(#paint0_linear)"/>
<path d="M844.3 286.4C837.8 285.5 833.2 279.6 833.9 273.1C834.6 266.5 840.6 261.7 847.3 262.4C853.3 263.1 859.4 263.2 865.4 262.9C872.1 262.5 877.8 267.6 878.2 274.3C878.6 281 873.5 286.7 866.8 287.1C859.4 287.5 852 287.3 844.6 286.5C844.5 286.4 844.4 286.4 844.3 286.4Z" fill="url(#paint1_linear)"/>
<path d="M809.4 276.9C808.3 276.7 807.2 276.4 806.1 276C779 263.9 756.6 242.7 743.1 216.2C736.3 202.8 731.9 188.5 730 173.7C729.2 167.1 733.8 161 740.5 160.2C747.1 159.4 753.2 164 754 170.7C755.5 182.7 759.1 194.4 764.7 205.3C775.7 226.9 793.9 244.2 816 254C822.1 256.7 824.9 263.9 822.1 270C819.9 274.9 814.6 277.6 809.4 276.9Z" fill="url(#paint2_linear)"/>
<path d="M748 124.9C747 124.8 746 124.5 745.1 124.1C738.9 121.6 735.9 114.5 738.4 108.4C741.2 101.5 744.5 94.9 748.4 88.6C751.9 82.9 759.4 81.2 765 84.7C770.7 88.2 772.4 95.7 768.9 101.3C765.7 106.4 763 111.8 760.7 117.4C758.8 122.7 753.4 125.6 748 124.9Z" fill="url(#paint3_linear)"/>
<path d="M977.2 315.7C966.9 315.7 956.6 311.8 948.7 303.9L829.8 185C814.1 169.3 814.1 143.7 829.8 128C845.5 112.3 871.1 112.3 886.8 128L1005.7 246.9C1021.4 262.6 1021.4 288.2 1005.7 303.9C997.8 311.7 987.5 315.7 977.2 315.7Z" fill="url(#paint4_linear)"/>
<path opacity="0.2" d="M938.2 293.4L876.9 232.1C872.1 233.3 867.2 234 862.2 234.2L927.2 299.2C930.5 297.6 933.7 295.9 936.9 294.1C937.4 293.9 937.8 293.7 938.2 293.4Z" fill="#13091C"/>
<path d="M977.2 287.5C974.1 287.5 971 286.3 968.7 284L889.7 205C885 200.3 885 192.6 889.7 187.9C894.4 183.2 902.1 183.2 906.8 187.9L985.8 266.9C990.5 271.6 990.5 279.3 985.8 284C983.4 286.3 980.3 287.5 977.2 287.5ZM872.5 182.8C869.4 182.8 866.3 181.6 864 179.3L849.7 165C845 160.3 845 152.6 849.7 147.9C854.4 143.2 862.1 143.2 866.8 147.9L881 162.1C885.7 166.8 885.7 174.5 881 179.2C878.7 181.6 875.6 182.8 872.5 182.8Z" fill="url(#paint5_linear)"/>
<path d="M974.1 186.2H974C967.4 185.2 962.8 179.1 963.8 172.5L963.9 171.5C964.7 165.9 965 160.1 964.8 154.5C964.6 147.8 969.9 142.3 976.6 142.1C983.3 141.9 988.8 147.2 989 153.9C989.2 160.9 988.8 167.9 987.8 174.8C987.7 175.2 987.7 175.6 987.6 176C986.7 182.5 980.6 187 974.1 186.2Z" fill="url(#paint6_linear)"/>
<path d="M958.6 108.7C955.1 108.2 951.8 106.2 949.8 102.9C933.3 75.2 905.3 56.7 873.2 52.3C868.7 51.7 864.2 51.4 859.7 51.3C853 51.2 847.7 45.8 847.7 39.1C847.7 32.4 853.2 27.1 859.9 27.1C865.4 27.1 871 27.5 876.5 28.3C916 33.7 950.3 56.3 970.6 90.4C974 96.1 972.1 103.6 966.4 107C964 108.5 961.2 109 958.6 108.7Z" fill="url(#paint7_linear)"/>
<path d="M803.8 64.1C800 63.6 796.5 61.3 794.7 57.6C791.7 51.7 794 44.4 800 41.3C806.6 37.9 813.5 35.1 820.5 32.9C826.9 30.9 833.7 34.5 835.6 40.9C837.6 47.3 834 54.1 827.6 56C821.9 57.8 816.2 60.1 810.9 62.8C808.7 64 806.2 64.4 803.8 64.1Z" fill="url(#paint8_linear)"/>
</g>
<defs>
<linearGradient id="paint0_linear" x1="701.473" y1="157.46" x2="1016.45" y2="157.46" gradientUnits="userSpaceOnUse">
<stop stop-color="#20F4C6"/>
<stop offset="1" stop-color="#6381FF"/>
</linearGradient>
<linearGradient id="paint1_linear" x1="840.536" y1="290.102" x2="869.353" y2="261.285" gradientUnits="userSpaceOnUse">
<stop stop-color="#6381FF"/>
<stop offset="1" stop-color="#20F4C6"/>
</linearGradient>
<linearGradient id="paint2_linear" x1="758.775" y1="236.3" x2="793.905" y2="201.17" gradientUnits="userSpaceOnUse">
<stop stop-color="#6381FF"/>
<stop offset="1" stop-color="#20F4C6"/>
</linearGradient>
<linearGradient id="paint3_linear" x1="739.075" y1="119.077" x2="771.714" y2="86.4379" gradientUnits="userSpaceOnUse">
<stop stop-color="#6381FF"/>
<stop offset="1" stop-color="#20F4C6"/>
</linearGradient>
<linearGradient id="paint4_linear" x1="817.975" y1="215.934" x2="1017.47" y2="215.934" gradientUnits="userSpaceOnUse">
<stop stop-color="#20F4C6"/>
<stop offset="1" stop-color="#6381FF"/>
</linearGradient>
<linearGradient id="paint5_linear" x1="908.031" y1="225.627" x2="927.108" y2="206.55" gradientUnits="userSpaceOnUse">
<stop stop-color="#6381FF"/>
<stop offset="1" stop-color="#20F4C6"/>
</linearGradient>
<linearGradient id="paint6_linear" x1="963.251" y1="177.167" x2="990.147" y2="150.271" gradientUnits="userSpaceOnUse">
<stop stop-color="#6381FF"/>
<stop offset="1" stop-color="#20F4C6"/>
</linearGradient>
<linearGradient id="paint7_linear" x1="914.314" y1="63.6601" x2="929.639" y2="48.3351" gradientUnits="userSpaceOnUse">
<stop stop-color="#6381FF"/>
<stop offset="1" stop-color="#20F4C6"/>
</linearGradient>
<linearGradient id="paint8_linear" x1="796.455" y1="66.6212" x2="836.508" y2="26.5685" gradientUnits="userSpaceOnUse">
<stop stop-color="#6381FF"/>
<stop offset="1" stop-color="#20F4C6"/>
</linearGradient>
<clipPath id="clip0">
<rect width="1831.11" height="315.68" fill="white" transform="translate(0 0.359985)"/>
</clipPath>
</defs>
</svg>
