<svg width="1767" height="316" viewBox="0 0 1767 316" fill="none" xmlns="http://www.w3.org/2000/svg">
<g clip-path="url(#clip0)">
<path d="M1237.5 21.5V83.3H1163.1V300.7H1085.5V83.2H1011.8V21.5H1237.5Z" fill="white"/>
<path d="M1304.4 285C1282.5 272.7 1265.1 255.7 1252.3 233.9C1239.5 212.1 1233.1 187.5 1233.1 160C1233.1 132.5 1239.5 107.9 1252.3 86.1C1265.1 64.3 1282.5 47.4 1304.4 35.2C1326.3 23.1 1350.3 17 1376.5 17C1402.9 17 1427 23.1 1448.8 35.2C1470.6 47.3 1487.8 64.3 1500.5 86.1C1513.2 107.9 1519.5 132.5 1519.5 160C1519.5 187.5 1513.2 212.1 1500.5 233.9C1487.8 255.7 1470.5 272.7 1448.6 285C1426.7 297.3 1402.7 303.4 1376.5 303.4C1350.3 303.4 1326.3 297.3 1304.4 285ZM1423.4 211.9C1434.9 199 1440.6 181.7 1440.6 160C1440.6 137.8 1434.9 120.3 1423.4 107.5C1411.9 94.7 1396.3 88.3 1376.5 88.3C1356.4 88.3 1340.7 94.7 1329.4 107.5C1318 120.3 1312.4 137.8 1312.4 160C1312.4 181.9 1318.1 199.3 1329.4 212.1C1340.7 224.9 1356.5 231.3 1376.5 231.3C1396.3 231.4 1411.9 224.9 1423.4 211.9Z" fill="white"/>
<path d="M1679.8 300.7L1624.4 197.7H1616.1V300.7H1538.5V21.5H1660.9C1683.3 21.5 1702.3 25.4 1717.9 33.2C1733.5 41 1745.2 51.7 1753.1 65.3C1761 78.9 1765 94.1 1765 111C1765 130 1759.8 146.7 1749.4 161.1C1739 175.5 1723.7 185.7 1703.7 191.8L1766.7 300.7H1679.8ZM1616.1 144.6H1654.5C1665.1 144.6 1673 142.1 1678.3 137.1C1683.6 132.1 1686.2 124.8 1686.2 115.3C1686.2 106.3 1683.5 99.3 1678.1 94.1C1672.7 89 1664.8 86.4 1654.5 86.4H1616.1V144.6Z" fill="white"/>
<path d="M141.4 300.7L86 197.7H77.7V300.7H0V21.5H122.4C144.8 21.5 163.8 25.4 179.4 33.2C195 41 206.7 51.7 214.6 65.3C222.5 78.9 226.5 94.1 226.5 111C226.5 130 221.3 146.7 210.9 161.1C200.5 175.5 185.2 185.7 165.2 191.8L228.2 300.7H141.4ZM77.6 144.6H116C126.6 144.6 134.5 142.1 139.8 137.1C145.1 132.1 147.7 124.8 147.7 115.3C147.7 106.3 145 99.3 139.6 94.1C134.2 89 126.3 86.4 116 86.4H77.6V144.6Z" fill="white"/>
<path d="M323.5 83.6V129.1H412.6V188.1H323.5V238.4H424.5V300.6H245.9V21.5H424.5V83.7H323.5V83.6Z" fill="white"/>
<path d="M631.6 255.1H532.6L517.6 300.6H436L537.8 21.5H627.3L728.7 300.7H646.7L631.6 255.1ZM612.2 195.7L582.1 105.4L552.4 195.7H612.2Z" fill="white"/>
<path d="M859.7 314.9C845.8 314.9 831.8 313 818 309.3C777.4 298.2 743.6 272 722.8 235.5C702 199 696.6 156.5 707.7 116C730.5 32.2 817.2 -17.3 901 5.6C941.6 16.7 975.4 42.9 996.2 79.4C1017 115.9 1022.4 158.4 1011.3 198.9C1000.2 239.5 974 273.3 937.5 294.1C913.4 307.9 886.7 314.9 859.7 314.9ZM859.5 80.6C825.7 80.6 794.7 103.1 785.4 137.2C780 157 782.6 177.7 792.8 195.5C803 213.3 819.5 226.1 839.3 231.5C859.1 236.9 879.8 234.3 897.6 224.1C915.4 213.9 928.2 197.4 933.6 177.6C939 157.8 936.4 137.1 926.2 119.3C916 101.5 899.5 88.7 879.7 83.3C873 81.5 866.2 80.6 859.5 80.6Z" fill="url(#paint0_linear)"/>
<path d="M844.8 286.4C838.3 285.5 833.7 279.6 834.4 273.1C835.1 266.5 841.1 261.7 847.8 262.4C853.8 263.1 859.9 263.2 865.9 262.9C872.6 262.5 878.3 267.6 878.7 274.3C879.1 281 874 286.7 867.3 287.1C859.9 287.5 852.5 287.3 845.1 286.5C845 286.4 844.9 286.4 844.8 286.4Z" fill="url(#paint1_linear)"/>
<path d="M809.9 276.9C808.8 276.7 807.7 276.4 806.6 276C779.5 263.9 757.1 242.7 743.6 216.2C736.8 202.8 732.4 188.5 730.5 173.7C729.7 167.1 734.3 161 741 160.2C747.6 159.4 753.7 164 754.5 170.7C756 182.7 759.6 194.4 765.2 205.3C776.2 226.9 794.4 244.2 816.5 254C822.6 256.7 825.4 263.9 822.6 270C820.4 274.9 815.1 277.6 809.9 276.9Z" fill="url(#paint2_linear)"/>
<path d="M748.6 124.9C747.6 124.8 746.6 124.5 745.7 124.1C739.5 121.6 736.5 114.5 739 108.4C741.8 101.5 745.1 94.9 749 88.6C752.5 82.9 760 81.2 765.6 84.7C771.3 88.2 773 95.7 769.5 101.3C766.3 106.4 763.6 111.8 761.3 117.4C759.3 122.7 753.9 125.6 748.6 124.9Z" fill="url(#paint3_linear)"/>
<path d="M977.7 315.7C967.4 315.7 957.1 311.8 949.2 303.9L830.3 185C814.6 169.3 814.6 143.7 830.3 128C846 112.3 871.6 112.3 887.3 128L1006.2 246.9C1021.9 262.6 1021.9 288.2 1006.2 303.9C998.3 311.7 988 315.7 977.7 315.7Z" fill="url(#paint4_linear)"/>
<path opacity="0.2" d="M938.7 293.4L877.4 232.1C872.6 233.3 867.7 234 862.7 234.2L927.7 299.2C931 297.6 934.2 295.9 937.4 294.1C937.9 293.9 938.3 293.7 938.7 293.4Z" fill="#13091C"/>
<path d="M977.7 287.5C974.6 287.5 971.5 286.3 969.2 284L890.2 205C885.5 200.3 885.5 192.6 890.2 187.9C894.9 183.2 902.6 183.2 907.3 187.9L986.3 266.9C991 271.6 991 279.3 986.3 284C983.9 286.3 980.8 287.5 977.7 287.5ZM873 182.8C869.9 182.8 866.8 181.6 864.5 179.3L850.2 165C845.5 160.3 845.5 152.6 850.2 147.9C854.9 143.2 862.6 143.2 867.3 147.9L881.5 162.1C886.2 166.8 886.2 174.5 881.5 179.2C879.2 181.6 876.1 182.8 873 182.8Z" fill="url(#paint5_linear)"/>
<path d="M974.6 186.2H974.5C967.9 185.2 963.3 179.1 964.3 172.5L964.4 171.5C965.2 165.9 965.5 160.1 965.3 154.5C965.1 147.8 970.4 142.3 977.1 142.1C983.8 141.9 989.3 147.2 989.5 153.9C989.7 160.9 989.3 167.9 988.3 174.8C988.2 175.2 988.2 175.6 988.1 176C987.2 182.5 981.1 187 974.6 186.2Z" fill="url(#paint6_linear)"/>
<path d="M959.1 108.7C955.6 108.2 952.3 106.2 950.3 102.9C933.8 75.2 905.8 56.7 873.7 52.3C869.2 51.7 864.7 51.4 860.2 51.3C853.5 51.2 848.2 45.8 848.2 39.1C848.2 32.4 853.7 27.1 860.4 27.1C865.9 27.1 871.5 27.5 877 28.3C916.5 33.7 950.8 56.3 971.1 90.4C974.5 96.1 972.6 103.6 966.9 107C964.5 108.5 961.7 109 959.1 108.7Z" fill="url(#paint7_linear)"/>
<path d="M804.3 64.1C800.5 63.6 797 61.3 795.2 57.6C792.2 51.7 794.5 44.4 800.5 41.3C807.1 38 814 35.2 821 33C827.4 31 834.2 34.6 836.1 41C838.1 47.4 834.5 54.2 828.1 56.1C822.4 57.9 816.7 60.2 811.4 62.9C809.2 64 806.7 64.4 804.3 64.1Z" fill="url(#paint8_linear)"/>
</g>
<defs>
<linearGradient id="paint0_linear" x1="701.989" y1="157.46" x2="1016.96" y2="157.46" gradientUnits="userSpaceOnUse">
<stop stop-color="#E22786"/>
<stop offset="1" stop-color="#502C85"/>
</linearGradient>
<linearGradient id="paint1_linear" x1="841.052" y1="290.102" x2="869.869" y2="261.285" gradientUnits="userSpaceOnUse">
<stop stop-color="#6236A3"/>
<stop offset="0.2441" stop-color="#6536A1"/>
<stop offset="0.4512" stop-color="#70349B"/>
<stop offset="0.6447" stop-color="#813290"/>
<stop offset="0.8289" stop-color="#9A2E82"/>
<stop offset="1" stop-color="#B82A70"/>
</linearGradient>
<linearGradient id="paint2_linear" x1="759.291" y1="236.3" x2="794.421" y2="201.17" gradientUnits="userSpaceOnUse">
<stop stop-color="#6236A3"/>
<stop offset="0.2441" stop-color="#6536A1"/>
<stop offset="0.4512" stop-color="#70349B"/>
<stop offset="0.6447" stop-color="#813290"/>
<stop offset="0.8289" stop-color="#9A2E82"/>
<stop offset="1" stop-color="#B82A70"/>
</linearGradient>
<linearGradient id="paint3_linear" x1="739.59" y1="119.077" x2="772.23" y2="86.4379" gradientUnits="userSpaceOnUse">
<stop stop-color="#6236A3"/>
<stop offset="0.2441" stop-color="#6536A1"/>
<stop offset="0.4512" stop-color="#70349B"/>
<stop offset="0.6447" stop-color="#813290"/>
<stop offset="0.8289" stop-color="#9A2E82"/>
<stop offset="1" stop-color="#B82A70"/>
</linearGradient>
<linearGradient id="paint4_linear" x1="818.491" y1="215.934" x2="1017.99" y2="215.934" gradientUnits="userSpaceOnUse">
<stop stop-color="#E22786"/>
<stop offset="1" stop-color="#502C85"/>
</linearGradient>
<linearGradient id="paint5_linear" x1="908.547" y1="225.627" x2="927.624" y2="206.55" gradientUnits="userSpaceOnUse">
<stop stop-color="#6236A3"/>
<stop offset="0.2441" stop-color="#6536A1"/>
<stop offset="0.4512" stop-color="#70349B"/>
<stop offset="0.6447" stop-color="#813290"/>
<stop offset="0.8289" stop-color="#9A2E82"/>
<stop offset="1" stop-color="#B82A70"/>
</linearGradient>
<linearGradient id="paint6_linear" x1="963.767" y1="177.167" x2="990.663" y2="150.271" gradientUnits="userSpaceOnUse">
<stop stop-color="#6236A3"/>
<stop offset="0.2441" stop-color="#6536A1"/>
<stop offset="0.4512" stop-color="#70349B"/>
<stop offset="0.6447" stop-color="#813290"/>
<stop offset="0.8289" stop-color="#9A2E82"/>
<stop offset="1" stop-color="#B82A70"/>
</linearGradient>
<linearGradient id="paint7_linear" x1="914.83" y1="63.6601" x2="930.155" y2="48.3351" gradientUnits="userSpaceOnUse">
<stop stop-color="#6236A3"/>
<stop offset="0.2441" stop-color="#6536A1"/>
<stop offset="0.4512" stop-color="#70349B"/>
<stop offset="0.6447" stop-color="#813290"/>
<stop offset="0.8289" stop-color="#9A2E82"/>
<stop offset="1" stop-color="#B82A70"/>
</linearGradient>
<linearGradient id="paint8_linear" x1="796.971" y1="66.6212" x2="837.024" y2="26.5685" gradientUnits="userSpaceOnUse">
<stop stop-color="#6236A3"/>
<stop offset="0.2441" stop-color="#6536A1"/>
<stop offset="0.4512" stop-color="#70349B"/>
<stop offset="0.6447" stop-color="#813290"/>
<stop offset="0.8289" stop-color="#9A2E82"/>
<stop offset="1" stop-color="#B82A70"/>
</linearGradient>
<clipPath id="clip0">
<rect width="1766.56" height="315.68" fill="white" transform="translate(0 0.0400391)"/>
</clipPath>
</defs>
</svg>
