<svg width="1767" height="317" viewBox="0 0 1767 317" fill="none" xmlns="http://www.w3.org/2000/svg">
<g clip-path="url(#clip0)">
<path d="M1237.51 22.04V83.79H1163.07V301.19H1085.45V83.79H1011.79V22.04H1237.51Z" fill="white"/>
<path d="M1304.43 285.55C1282.78 273.529 1264.79 255.875 1252.36 234.46C1239.55 212.68 1233.15 188.063 1233.15 160.61C1233.15 133.157 1239.55 108.54 1252.36 86.7599C1264.76 65.3732 1282.76 47.7774 1304.43 35.8699C1326.34 23.7299 1350.36 17.6566 1376.51 17.6499C1402.9 17.6499 1426.99 23.7232 1448.78 35.8699C1470.33 47.793 1488.2 65.3937 1500.45 86.7599C1513.12 108.54 1519.45 133.157 1519.45 160.61C1519.45 188.063 1513.12 212.68 1500.45 234.46C1488.13 255.893 1470.2 273.558 1448.58 285.55C1426.66 297.817 1402.64 303.953 1376.51 303.96C1350.38 303.967 1326.36 297.83 1304.43 285.55ZM1423.43 212.49C1434.92 199.55 1440.66 182.257 1440.66 160.61C1440.66 138.43 1434.92 120.94 1423.43 108.14C1411.94 95.3399 1396.3 88.9366 1376.51 88.9299C1356.44 88.9299 1340.73 95.3332 1329.38 108.14C1318.03 120.947 1312.36 138.437 1312.38 160.61C1312.38 182.53 1318.05 199.887 1329.38 212.68C1340.71 225.473 1356.42 231.877 1376.51 231.89C1396.31 231.89 1411.95 225.423 1423.43 212.49Z" fill="white"/>
<path d="M1679.84 301.19L1624.4 198.19H1616.08V301.19H1538.46V22.04H1660.83C1683.26 22.04 1702.26 25.9334 1717.83 33.72C1733.4 41.5067 1745.15 52.2 1753.08 65.8C1761.03 79.38 1765 94.6167 1765 111.51C1765 130.51 1759.78 147.207 1749.35 161.6C1738.92 175.993 1723.67 186.223 1703.62 192.29L1766.62 301.19H1679.84ZM1616.08 145.19H1654.49C1665.05 145.19 1672.97 142.68 1678.25 137.66C1683.53 132.64 1686.17 125.38 1686.17 115.88C1686.17 106.913 1683.46 99.8534 1678.05 94.7C1672.64 89.5467 1664.78 86.97 1654.49 86.97H1616.08V145.19Z" fill="white"/>
<path d="M141.37 301.19L85.93 198.19H77.62V301.19H0V22.04H122.36C144.8 22.04 163.8 25.9334 179.36 33.72C194.92 41.5067 206.667 52.2 214.6 65.8C222.52 79.4 226.48 94.6467 226.48 111.54C226.48 130.54 221.267 147.237 210.84 161.63C200.413 176.023 185.167 186.253 165.1 192.32L228.1 301.22L141.37 301.19ZM77.62 145.19H116C126.547 145.19 134.467 142.68 139.76 137.66C145.053 132.64 147.693 125.38 147.68 115.88C147.68 106.913 144.973 99.8534 139.56 94.7C134.147 89.5467 126.293 86.9634 116 86.95H77.62V145.19Z" fill="white"/>
<path d="M323.53 84.18V129.72H412.63V188.72H323.53V239.04H424.53V301.21H245.91V22.04H424.51V84.18H323.53Z" fill="white"/>
<path d="M631.61 255.65H532.61L517.61 301.19H436L537.76 22.04H627.26L728.63 301.19H646.63L631.61 255.65ZM612.21 196.25L582.11 105.96L552.41 196.25H612.21Z" fill="white"/>
<path d="M1006.19 247.43L995.7 236.95C1002.5 225.172 1007.75 212.569 1011.33 199.45C1016.78 179.507 1018.24 158.687 1015.64 138.178C1013.04 117.669 1006.43 97.873 996.179 79.9203C985.928 61.9676 972.241 46.2099 955.9 33.5472C939.559 20.8845 920.883 11.5646 900.94 6.11995C817.22 -16.7501 730.49 32.7599 707.62 116.5C696.621 156.774 702.071 199.769 722.771 236.025C743.471 272.281 777.726 298.829 818 309.83C831.595 313.553 845.625 315.447 859.72 315.46C883.308 315.447 906.586 310.082 927.8 299.77L862.8 234.77C846.716 235.472 830.818 231.105 817.349 222.287C803.88 213.468 793.52 200.643 787.731 185.62C781.942 170.598 781.016 154.137 785.084 138.56C789.153 122.984 798.009 109.078 810.405 98.8047C822.801 88.5317 838.109 82.4104 854.17 81.3045C870.231 80.1987 886.234 84.1641 899.921 92.6412C913.608 101.118 924.287 113.679 930.451 128.551C936.616 143.423 937.956 159.856 934.28 175.53L887.28 128.53C879.721 120.971 869.47 116.725 858.78 116.725C848.091 116.725 837.839 120.971 830.28 128.53C822.721 136.089 818.475 146.34 818.475 157.03C818.475 167.72 822.721 177.971 830.28 185.53L949.18 304.44C956.739 311.999 966.99 316.245 977.68 316.245C988.37 316.245 998.621 311.999 1006.18 304.44C1013.74 296.881 1017.99 286.63 1017.99 275.94C1017.99 265.25 1013.74 254.999 1006.18 247.44L1006.19 247.43ZM739 108.91C741.767 102.045 745.113 95.4282 749 89.1299C749.828 87.763 750.919 86.5738 752.209 85.6311C753.5 84.6884 754.965 84.0109 756.519 83.6379C758.073 83.2648 759.685 83.2036 761.263 83.4577C762.841 83.7118 764.353 84.2762 765.711 85.1183C767.07 85.9604 768.247 87.0635 769.177 88.3637C770.106 89.6639 770.768 91.1355 771.125 92.6933C771.482 94.2511 771.527 95.8642 771.257 97.4393C770.986 99.0145 770.406 100.52 769.55 101.87C766.373 106.994 763.64 112.38 761.38 117.97C760.066 120.769 757.728 122.959 754.849 124.087C751.969 125.216 748.767 125.198 745.9 124.038C743.033 122.877 740.72 120.662 739.437 117.848C738.153 115.034 737.997 111.836 739 108.91ZM834.43 273.59C834.607 272.012 835.092 270.485 835.859 269.096C836.627 267.706 837.66 266.481 838.901 265.491C840.142 264.501 841.565 263.765 843.091 263.326C844.616 262.886 846.213 262.752 847.79 262.93C853.782 263.61 859.821 263.77 865.84 263.41C867.448 263.274 869.066 263.461 870.6 263.96C872.134 264.46 873.553 265.261 874.773 266.317C875.992 267.373 876.988 268.662 877.702 270.109C878.415 271.556 878.832 273.131 878.928 274.742C879.023 276.352 878.795 277.965 878.258 279.487C877.72 281.008 876.883 282.406 875.797 283.598C874.71 284.791 873.396 285.754 871.932 286.431C870.467 287.108 868.882 287.485 867.27 287.54C859.873 287.978 852.453 287.781 845.09 286.95H844.8C841.664 286.526 838.82 284.889 836.878 282.391C834.935 279.893 834.049 276.734 834.41 273.59H834.43ZM816.49 254.43C819.112 255.637 821.216 257.742 822.422 260.364C823.628 262.987 823.857 265.954 823.068 268.73C822.278 271.506 820.522 273.909 818.117 275.504C815.711 277.1 812.815 277.783 809.95 277.43C808.817 277.276 807.712 276.959 806.67 276.49C786.271 267.405 768.551 253.227 755.213 235.316C741.876 217.406 733.369 196.367 730.51 174.22C730.308 172.644 730.418 171.044 730.834 169.511C731.25 167.977 731.965 166.541 732.936 165.284C733.907 164.026 735.117 162.973 736.495 162.183C737.874 161.393 739.394 160.882 740.97 160.68C742.546 160.478 744.146 160.588 745.68 161.004C747.213 161.42 748.649 162.134 749.906 163.106C751.164 164.077 752.217 165.286 753.007 166.665C753.797 168.043 754.308 169.564 754.51 171.14C756.839 189.168 763.765 206.294 774.623 220.873C785.48 235.452 799.905 246.994 816.51 254.39L816.49 254.43ZM989.49 154.31C989.669 161.31 989.281 168.313 988.33 175.25C988.27 175.65 988.22 176.06 988.16 176.46C987.697 179.612 986.009 182.455 983.462 184.37C980.916 186.285 977.717 187.119 974.56 186.69H974.45C972.879 186.461 971.369 185.925 970.005 185.112C968.641 184.299 967.451 183.225 966.503 181.951C965.555 180.678 964.867 179.23 964.479 177.691C964.09 176.152 964.009 174.551 964.24 172.98L964.38 171.98C965.151 166.348 965.465 160.663 965.32 154.98C965.28 151.801 966.494 148.734 968.698 146.444C970.903 144.153 973.921 142.823 977.099 142.741C980.277 142.66 983.36 143.833 985.679 146.008C987.998 148.183 989.367 151.183 989.49 154.36V154.31ZM828.19 56.5999C822.426 58.3877 816.825 60.6661 811.45 63.4099C810.036 64.1322 808.493 64.5688 806.91 64.6949C805.327 64.8209 803.734 64.6339 802.224 64.1446C800.713 63.6552 799.313 62.8731 798.105 61.8428C796.896 60.8125 795.902 59.5543 795.18 58.1399C794.458 56.7256 794.021 55.1829 793.895 53.5998C793.769 52.0167 793.956 50.4243 794.445 48.9135C794.935 47.4027 795.717 46.0031 796.747 44.7945C797.778 43.586 799.036 42.5922 800.45 41.8699C807.052 38.5067 813.927 35.7068 821 33.4999C822.531 32.9757 824.151 32.7639 825.765 32.8769C827.38 32.99 828.955 33.4256 830.397 34.1581C831.84 34.8906 833.121 35.905 834.165 37.1413C835.209 38.3776 835.994 39.8108 836.475 41.3559C836.955 42.9011 837.121 44.5269 836.961 46.1371C836.802 47.7473 836.322 49.3093 835.549 50.7306C834.775 52.1519 833.725 53.4037 832.459 54.4118C831.193 55.4199 829.738 56.164 828.18 56.5999H828.19ZM873.72 52.8299C869.253 52.207 864.75 51.8729 860.24 51.8299C857.034 51.8047 853.968 50.5068 851.719 48.2217C849.469 45.9366 848.22 42.8514 848.245 39.6449C848.27 36.4385 849.568 33.3733 851.853 31.1238C854.138 28.8744 857.224 27.6248 860.43 27.6499C865.974 27.7099 871.508 28.1208 877 28.8799C896.36 31.4655 914.883 38.4011 931.18 49.1665C947.477 59.9319 961.125 74.2476 971.1 91.0399C971.947 92.404 972.514 93.9231 972.768 95.5086C973.021 97.0941 972.957 98.7142 972.577 100.274C972.198 101.835 971.512 103.304 970.559 104.596C969.605 105.888 968.404 106.977 967.026 107.8C965.647 108.623 964.118 109.163 962.528 109.389C960.938 109.614 959.32 109.521 957.766 109.114C956.213 108.707 954.756 107.995 953.481 107.019C952.206 106.043 951.138 104.823 950.34 103.43C942.215 89.7609 931.101 78.1082 917.832 69.3452C904.562 60.5821 889.482 54.936 873.72 52.8299ZM881.58 179.83C880.459 180.955 879.126 181.848 877.659 182.458C876.192 183.067 874.619 183.38 873.03 183.38C871.441 183.38 869.868 183.067 868.401 182.458C866.934 181.848 865.601 180.955 864.48 179.83L850.24 165.58C847.974 163.314 846.701 160.24 846.701 157.035C846.701 153.83 847.974 150.756 850.24 148.49C852.506 146.224 855.58 144.951 858.785 144.951C861.99 144.951 865.064 146.224 867.33 148.49L881.58 162.74C883.836 165.007 885.103 168.076 885.103 171.275C885.103 174.474 883.836 177.542 881.58 179.81V179.83ZM986.24 284.48C983.969 286.741 980.895 288.01 977.69 288.01C974.486 288.01 971.411 286.741 969.14 284.48L890.14 205.48C887.874 203.214 886.601 200.14 886.601 196.935C886.601 193.73 887.874 190.656 890.14 188.39C892.406 186.124 895.48 184.85 898.685 184.85C901.89 184.85 904.964 186.124 907.23 188.39L986.23 267.39C988.494 269.657 989.766 272.729 989.768 275.933C989.77 279.137 988.501 282.21 986.24 284.48Z" fill="white" stroke="white" stroke-miterlimit="10"/>
</g>
<defs>
<clipPath id="clip0">
<rect width="1766.56" height="316.68" fill="white" transform="translate(0 0.0400391)"/>
</clipPath>
</defs>
</svg>
