<svg width="320" height="321" viewBox="0 0 320 321" fill="none" xmlns="http://www.w3.org/2000/svg">
<g clip-path="url(#clip0)">
<path d="M159.7 319.897C145.6 319.897 131.4 317.992 117.4 314.18C76.4 302.945 42.2 276.261 21 239.246C-0.200027 202.231 -5.60003 158.996 5.69997 117.867C28.9 32.7019 116.7 -17.5548 201.5 5.71773C242.6 16.9528 276.8 43.636 297.9 80.6514C319 117.767 324.5 160.902 313.2 202.03C302 243.258 275.4 277.565 238.5 298.731C214.1 312.775 187.1 319.897 159.7 319.897ZM159.5 81.8552C125.3 81.8552 93.9 104.726 84.4 139.334C78.9 159.397 81.6 180.463 91.9 198.619C102.2 216.776 118.9 229.716 139 235.233C159 240.751 180 238.042 198.1 227.71C216.1 217.378 229.1 200.626 234.6 180.463C240.1 160.4 237.4 139.334 227.1 121.178C216.8 103.121 200.1 90.0808 180 84.5636C173.1 82.758 166.3 81.8552 159.5 81.8552Z" fill="url(#paint0_linear)"/>
<path d="M144.6 290.907C138 290.004 133.4 283.986 134.1 277.365C134.9 270.644 140.9 265.729 147.6 266.531C153.7 267.233 159.8 267.334 165.9 267.033C172.6 266.631 178.4 271.747 178.8 278.569C179.2 285.29 174.1 291.108 167.3 291.509C159.8 291.91 152.3 291.71 144.8 290.907C144.8 290.907 144.7 290.907 144.6 290.907Z" fill="url(#paint1_linear)"/>
<path d="M109.3 281.277C108.2 281.076 107.1 280.776 106 280.374C78.5 268.136 55.8 246.569 42.2 219.585C35.3 205.942 30.8 191.497 28.9 176.45C28 169.729 32.8 163.61 39.5 162.707C46.2 161.805 52.3 166.62 53.2 173.341C54.8 185.579 58.4 197.416 64 208.45C75.1 230.419 93.6 247.973 115.9 257.904C122.1 260.613 124.9 267.936 122.1 274.155C119.9 279.271 114.6 282.08 109.3 281.277Z" fill="url(#paint2_linear)"/>
<path d="M47.2 126.896C46.2 126.795 45.2 126.494 44.3 126.093C38 123.585 35 116.363 37.5 110.143C40.3 103.222 43.7 96.4006 47.7 90.0809C51.3 84.3631 58.8 82.5574 64.6 86.0684C70.3 89.6796 72.1 97.2031 68.6 103.021C65.4 108.238 62.6 113.755 60.3 119.372C58 124.589 52.6 127.598 47.2 126.896Z" fill="url(#paint3_linear)"/>
<path d="M279.2 320.7C268.8 320.7 258.3 316.688 250.3 308.663L129.9 187.886C114 171.936 114 145.955 129.9 130.005C145.8 114.056 171.7 114.056 187.6 130.005L308 250.782C323.9 266.732 323.9 292.713 308 308.663C300.1 316.688 289.6 320.7 279.2 320.7Z" fill="url(#paint4_linear)"/>
<path opacity="0.2" d="M239.7 298.029L177.6 235.735C172.7 236.939 167.7 237.641 162.7 237.842L228.6 303.948C231.9 302.343 235.2 300.638 238.4 298.732C238.9 298.531 239.3 298.33 239.7 298.029Z" fill="#13091C"/>
<path d="M279.2 292.011C276.1 292.011 272.9 290.807 270.5 288.399L190.5 208.149C185.7 203.334 185.7 195.61 190.5 190.795C195.3 185.98 203 185.98 207.8 190.795L287.8 271.045C292.6 275.86 292.6 283.584 287.8 288.399C285.5 290.807 282.3 292.011 279.2 292.011ZM173.2 185.679C170.1 185.679 166.9 184.475 164.5 182.068L150.1 167.623C145.3 162.808 145.3 155.084 150.1 150.269C154.9 145.454 162.6 145.454 167.4 150.269L181.8 164.714C186.6 169.529 186.6 177.253 181.8 182.068C179.5 184.475 176.3 185.679 173.2 185.679Z" fill="url(#paint5_linear)"/>
<path d="M276 189.09H275.9C269.2 188.087 264.6 181.867 265.6 175.146L265.7 174.143C266.5 168.425 266.8 162.607 266.7 156.789C266.5 149.968 271.9 144.35 278.6 144.15C285.4 143.949 291 149.366 291.2 156.087C291.4 163.209 291 170.331 290 177.353C289.9 177.754 289.9 178.156 289.8 178.557C288.8 185.378 282.7 189.992 276 189.09Z" fill="url(#paint6_linear)"/>
<path d="M260.4 110.344C256.8 109.843 253.5 107.836 251.5 104.426C234.7 76.2377 206.5 57.4792 173.9 53.0655C169.4 52.4636 164.8 52.1627 160.2 52.0623C153.4 51.962 148 46.4448 148.1 39.7239C148.2 33.0029 153.7 27.4857 160.4 27.586C166 27.586 171.6 28.0876 177.2 28.7898C217.2 34.307 251.9 57.2786 272.5 91.8865C276 97.7047 274.1 105.228 268.3 108.739C265.8 110.244 263 110.745 260.4 110.344Z" fill="url(#paint7_linear)"/>
<path d="M103.6 65.103C99.8 64.6014 96.2 62.1939 94.3 58.4824C91.2 52.4636 93.6 45.0404 99.7 41.9307C106.4 38.5201 113.4 35.611 120.5 33.4042C127 31.3979 133.8 35.0092 135.8 41.5295C137.8 48.0498 134.2 54.8711 127.7 56.8774C121.9 58.683 116.2 60.9902 110.7 63.7989C108.5 65.0027 106 65.4039 103.6 65.103Z" fill="url(#paint8_linear)"/>
</g>
<defs>
<linearGradient id="paint0_linear" x1="-2.7102e-05" y1="159.952" x2="318.959" y2="159.952" gradientUnits="userSpaceOnUse">
<stop stop-color="#20F4C6"/>
<stop offset="1" stop-color="#6381FF"/>
</linearGradient>
<linearGradient id="paint1_linear" x1="140.823" y1="294.693" x2="170.096" y2="265.511" gradientUnits="userSpaceOnUse">
<stop stop-color="#6381FF"/>
<stop offset="1" stop-color="#20F4C6"/>
</linearGradient>
<linearGradient id="paint2_linear" x1="58.0275" y1="240.039" x2="93.713" y2="204.465" gradientUnits="userSpaceOnUse">
<stop stop-color="#6381FF"/>
<stop offset="1" stop-color="#20F4C6"/>
</linearGradient>
<linearGradient id="paint3_linear" x1="38.0774" y1="120.962" x2="71.2331" y2="87.9095" gradientUnits="userSpaceOnUse">
<stop stop-color="#6381FF"/>
<stop offset="1" stop-color="#20F4C6"/>
</linearGradient>
<linearGradient id="paint4_linear" x1="117.976" y1="219.351" x2="320" y2="219.351" gradientUnits="userSpaceOnUse">
<stop stop-color="#20F4C6"/>
<stop offset="1" stop-color="#6381FF"/>
</linearGradient>
<linearGradient id="paint5_linear" x1="209.173" y1="229.198" x2="228.551" y2="209.88" gradientUnits="userSpaceOnUse">
<stop stop-color="#6381FF"/>
<stop offset="1" stop-color="#20F4C6"/>
</linearGradient>
<linearGradient id="paint6_linear" x1="265.091" y1="179.971" x2="292.413" y2="152.735" gradientUnits="userSpaceOnUse">
<stop stop-color="#6381FF"/>
<stop offset="1" stop-color="#20F4C6"/>
</linearGradient>
<linearGradient id="paint7_linear" x1="215.535" y1="64.6676" x2="231.103" y2="49.1486" gradientUnits="userSpaceOnUse">
<stop stop-color="#6381FF"/>
<stop offset="1" stop-color="#20F4C6"/>
</linearGradient>
<linearGradient id="paint8_linear" x1="96.1842" y1="67.6755" x2="136.871" y2="27.116" gradientUnits="userSpaceOnUse">
<stop stop-color="#6381FF"/>
<stop offset="1" stop-color="#20F4C6"/>
</linearGradient>
<clipPath id="clip0">
<rect width="320" height="320.68" fill="white"/>
</clipPath>
</defs>
</svg>
