<svg width="1832" height="318" viewBox="0 0 1832 318" fill="none" xmlns="http://www.w3.org/2000/svg">
<g clip-path="url(#clip0)">
<path d="M1237.51 22.7397V84.5098H1163.07V301.92H1085.45V84.5098H1011.79V22.7397H1237.51Z" fill="white"/>
<path d="M1336.11 22.7397V301.92H1258.5V22.7397H1336.11Z" fill="white"/>
<path d="M1644.2 22.7397L1548 301.92H1448.61L1352 22.7397H1435.16L1498.52 224.3L1561.52 22.7397H1644.2Z" fill="white"/>
<path d="M1730.13 84.9098V130.45H1819.23V189.45H1730.13V239.75H1831.13V301.92H1652.53V22.7397H1831.13V84.9098H1730.13Z" fill="white"/>
<path d="M141.37 301.92L85.93 198.92H77.62V301.92H0V22.7397H122.36C144.8 22.7397 163.8 26.6331 179.36 34.4197C194.92 42.2064 206.667 52.8997 214.6 66.4997C222.52 80.0997 226.48 95.3431 226.48 112.23C226.48 131.236 221.267 147.936 210.84 162.33C200.413 176.723 185.167 186.953 165.1 193.02L228.1 301.92H141.37ZM77.62 145.92H116C126.547 145.92 134.467 143.413 139.76 138.4C145.053 133.386 147.693 126.126 147.68 116.62C147.68 107.653 144.973 100.59 139.56 95.4297C134.147 90.2697 126.293 87.6864 116 87.6797H77.62V145.92Z" fill="white"/>
<path d="M323.53 84.9098V130.45H412.63V189.45H323.53V239.75H424.53V301.92H245.91V22.7397H424.51V84.9098H323.53Z" fill="white"/>
<path d="M631.61 256.36H532.61L517.61 301.9H436L537.76 22.7397H627.26L728.63 301.92H646.63L631.61 256.36ZM612.21 196.96L582.11 106.67L552.41 196.96H612.21Z" fill="white"/>
<path d="M1005.67 247.75L995.19 237.27C1001.99 225.494 1007.24 212.89 1010.81 199.77C1016.26 179.828 1017.73 159.008 1015.13 138.498C1012.53 117.989 1005.92 98.192 995.67 80.2388C985.419 62.2856 971.733 46.5276 955.391 33.865C939.05 21.2024 920.374 11.8832 900.43 6.43977C816.7 -16.4302 730 33.0798 707.11 116.82C701.662 136.761 700.196 157.58 702.794 178.088C705.392 198.596 712.005 218.391 722.254 236.344C732.503 254.296 746.187 270.054 762.526 282.718C778.865 295.382 797.538 304.703 817.48 310.15C831.078 313.874 845.112 315.767 859.21 315.78C882.798 315.764 906.075 310.399 927.29 300.09L862.29 235.09C846.209 235.79 830.314 231.423 816.847 222.605C803.381 213.787 793.024 200.963 787.237 185.943C781.449 170.923 780.524 154.464 784.592 138.891C788.66 123.317 797.516 109.413 809.909 99.1419C822.303 88.8707 837.609 82.7502 853.667 81.6441C869.725 80.5381 885.726 84.5022 899.41 92.9772C913.095 101.452 923.773 114.01 929.938 128.879C936.103 143.749 937.443 160.178 933.77 175.85L886.77 128.85C879.211 121.291 868.96 117.045 858.27 117.045C847.58 117.045 837.329 121.291 829.77 128.85C822.211 136.408 817.965 146.66 817.965 157.35C817.965 168.039 822.211 178.291 829.77 185.85L948.68 304.74C952.423 308.482 956.866 311.451 961.756 313.477C966.646 315.502 971.887 316.545 977.18 316.545C982.473 316.545 987.714 315.502 992.604 313.477C997.494 311.451 1001.94 308.482 1005.68 304.74C1009.42 300.997 1012.39 296.554 1014.42 291.664C1016.44 286.774 1017.49 281.533 1017.49 276.24C1017.49 270.947 1016.44 265.706 1014.42 260.816C1012.39 255.926 1009.42 251.482 1005.68 247.74L1005.67 247.75ZM738.46 109.23C741.227 102.365 744.573 95.7482 748.46 89.4498C749.273 88.0523 750.357 86.8319 751.65 85.861C752.943 84.89 754.417 84.1882 755.985 83.7969C757.554 83.4056 759.185 83.3329 760.782 83.5831C762.379 83.8333 763.91 84.4012 765.284 85.2533C766.658 86.1054 767.847 87.2244 768.78 88.5441C769.714 89.8638 770.374 91.3573 770.72 92.9364C771.067 94.5154 771.093 96.148 770.798 97.7374C770.502 99.3268 769.891 100.841 769 102.19C765.826 107.314 763.096 112.7 760.84 118.29C759.831 120.781 758.022 122.866 755.697 124.215C753.372 125.564 750.664 126.101 748 125.74C747.002 125.6 746.024 125.338 745.09 124.96C743.622 124.362 742.286 123.481 741.158 122.368C740.03 121.254 739.133 119.929 738.517 118.468C737.901 117.007 737.579 115.44 737.57 113.855C737.56 112.269 737.862 110.698 738.46 109.23ZM833.9 273.91C834.077 272.332 834.562 270.805 835.329 269.415C836.097 268.026 837.13 266.801 838.371 265.811C839.612 264.821 841.035 264.085 842.56 263.646C844.086 263.206 845.683 263.072 847.26 263.25C853.235 263.927 859.257 264.088 865.26 263.73C866.867 263.595 868.484 263.783 870.017 264.282C871.55 264.781 872.968 265.583 874.186 266.638C875.405 267.693 876.401 268.982 877.114 270.428C877.827 271.874 878.244 273.448 878.34 275.057C878.436 276.667 878.21 278.279 877.673 279.799C877.137 281.32 876.302 282.718 875.217 283.911C874.133 285.104 872.82 286.067 871.358 286.746C869.895 287.424 868.311 287.803 866.7 287.86C859.3 288.298 851.876 288.101 844.51 287.27H844.22C841.096 286.831 838.267 285.188 836.339 282.692C834.41 280.195 833.535 277.043 833.9 273.91ZM816 254.75C818.622 255.957 820.726 258.062 821.932 260.684C823.138 263.306 823.367 266.274 822.578 269.05C821.788 271.826 820.032 274.229 817.627 275.824C815.221 277.42 812.325 278.103 809.46 277.75C808.331 277.594 807.229 277.278 806.19 276.81C785.79 267.733 768.067 253.563 754.724 235.66C741.381 217.757 732.867 196.723 730 174.58C729.592 171.397 730.464 168.183 732.426 165.643C734.387 163.104 737.277 161.448 740.46 161.04C743.643 160.631 746.857 161.504 749.396 163.466C751.936 165.427 753.592 168.317 754 171.5C756.329 189.528 763.255 206.654 774.112 221.233C784.97 235.812 799.395 247.354 816 254.75ZM989 154.63C989.179 161.63 988.791 168.632 987.84 175.57C987.78 175.97 987.73 176.38 987.67 176.78C987.207 179.932 985.518 182.774 982.972 184.69C980.426 186.605 977.227 187.439 974.07 187.01H973.96C972.389 186.781 970.878 186.245 969.514 185.432C968.15 184.619 966.959 183.545 966.01 182.272C965.061 180.999 964.372 179.551 963.983 178.012C963.593 176.472 963.511 174.871 963.74 173.3L963.88 172.3C964.651 166.668 964.965 160.983 964.82 155.3C964.738 152.093 965.933 148.986 968.142 146.66C970.351 144.335 973.393 142.982 976.6 142.9C979.806 142.818 982.914 144.012 985.24 146.222C987.565 148.431 988.918 151.473 989 154.68V154.63ZM827.68 56.9198C821.913 58.7075 816.309 60.9859 810.93 63.7298C808.073 65.1815 804.757 65.4398 801.71 64.4479C798.663 63.456 796.135 61.295 794.68 58.4398C793.961 57.0237 793.528 55.4798 793.406 53.8963C793.285 52.3129 793.476 50.7209 793.97 49.2116C794.464 47.7023 795.251 46.3052 796.286 45.1003C797.321 43.8954 798.583 42.9064 800 42.1898C806.599 38.8271 813.47 36.0272 820.54 33.8198C823.573 32.9713 826.817 33.3387 829.583 34.8439C832.35 36.3491 834.42 38.8735 835.355 41.8809C836.289 44.8882 836.015 48.1415 834.589 50.9497C833.164 53.7578 830.699 55.8995 827.72 56.9198H827.68ZM873.21 53.1498C868.743 52.5273 864.24 52.1932 859.73 52.1498C856.523 52.1246 853.458 50.8266 851.209 48.5415C848.959 46.2564 847.71 43.1712 847.735 39.9648C847.76 36.7583 849.058 33.6932 851.343 31.4437C853.628 29.1942 856.714 27.9446 859.92 27.9698C865.463 28.0197 870.997 28.4205 876.49 29.1698C895.851 31.7601 914.373 38.7009 930.669 49.4716C946.964 60.2422 960.609 74.5631 970.58 91.3598C971.427 92.7238 971.994 94.2429 972.248 95.8284C972.501 97.4139 972.437 99.034 972.057 100.594C971.678 102.154 970.992 103.624 970.039 104.916C969.085 106.208 967.884 107.297 966.505 108.12C965.127 108.943 963.598 109.483 962.008 109.708C960.418 109.934 958.8 109.841 957.246 109.434C955.693 109.027 954.236 108.315 952.961 107.339C951.686 106.363 950.618 105.143 949.82 103.75C941.697 90.081 930.585 78.4283 917.317 69.6652C904.049 60.9021 888.97 55.2558 873.21 53.1498ZM881.07 180.15C879.948 181.275 878.614 182.169 877.146 182.778C875.678 183.387 874.104 183.701 872.515 183.701C870.926 183.701 869.352 183.387 867.884 182.778C866.416 182.169 865.082 181.275 863.96 180.15L849.72 165.9C848.564 164.785 847.642 163.45 847.007 161.975C846.373 160.499 846.039 158.912 846.025 157.306C846.01 155.699 846.317 154.106 846.925 152.62C847.533 151.133 848.432 149.783 849.568 148.647C850.704 147.512 852.055 146.614 853.542 146.007C855.029 145.399 856.622 145.094 858.228 145.109C859.834 145.125 861.421 145.46 862.896 146.095C864.372 146.73 865.705 147.653 866.82 148.81L881.07 163.06C883.326 165.327 884.593 168.396 884.593 171.595C884.593 174.794 883.326 177.862 881.07 180.13V180.15ZM985.72 284.8C983.45 287.06 980.378 288.329 977.175 288.329C973.972 288.329 970.9 287.06 968.63 284.8L889.63 205.8C887.432 203.518 886.217 200.465 886.246 197.297C886.276 194.129 887.548 191.099 889.789 188.859C892.03 186.62 895.061 185.349 898.229 185.321C901.397 185.293 904.45 186.51 906.73 188.71L985.73 267.71C987.991 269.979 989.26 273.053 989.258 276.257C989.256 279.461 987.984 282.533 985.72 284.8Z" fill="white" stroke="white" stroke-miterlimit="10"/>
</g>
<defs>
<clipPath id="clip0">
<rect width="1831.11" height="316.68" fill="white" transform="translate(0 0.359863)"/>
</clipPath>
</defs>
</svg>
