<svg width="1767" height="316" viewBox="0 0 1767 316" fill="none" xmlns="http://www.w3.org/2000/svg">
<g clip-path="url(#clip0)">
<path d="M1237.51 21.47V83.25H1163.07V300.65H1085.45V83.25H1011.79V21.47H1237.51Z" fill="black"/>
<path d="M1304.43 285C1282.78 272.979 1264.79 255.326 1252.36 233.91C1239.55 212.13 1233.15 187.513 1233.15 160.06C1233.15 132.607 1239.55 107.99 1252.36 86.2101C1264.76 64.8234 1282.76 47.2276 1304.43 35.3201C1326.34 23.1801 1350.36 17.1068 1376.51 17.1001C1402.9 17.1001 1426.99 23.1734 1448.78 35.3201C1470.33 47.2432 1488.2 64.8439 1500.45 86.2101C1513.12 107.99 1519.45 132.607 1519.45 160.06C1519.45 187.513 1513.12 212.13 1500.45 233.91C1488.13 255.344 1470.2 273.008 1448.58 285C1426.66 297.267 1402.64 303.403 1376.51 303.41C1350.38 303.417 1326.36 297.28 1304.43 285ZM1423.43 211.94C1434.92 199 1440.66 181.707 1440.66 160.06C1440.66 137.88 1434.92 120.39 1423.43 107.59C1411.94 94.7901 1396.3 88.3868 1376.51 88.3801C1356.44 88.3801 1340.73 94.7834 1329.38 107.59C1318.03 120.397 1312.36 137.887 1312.38 160.06C1312.38 181.98 1318.05 199.337 1329.38 212.13C1340.71 224.923 1356.42 231.327 1376.51 231.34C1396.31 231.347 1411.95 224.9 1423.43 212V211.94Z" fill="black"/>
<path d="M1679.84 300.65L1624.4 197.65H1616.08V300.65H1538.46V21.47H1660.83C1683.27 21.47 1702.27 25.3633 1717.83 33.15C1733.39 40.9366 1745.14 51.63 1753.08 65.23C1761.03 78.83 1765 94.0866 1765 111C1765 130 1759.78 146.697 1749.35 161.09C1738.92 175.483 1723.67 185.713 1703.62 191.78L1766.62 300.68L1679.84 300.65ZM1616.08 144.65H1654.49C1665.05 144.65 1672.97 142.14 1678.25 137.12C1683.53 132.1 1686.17 124.84 1686.17 115.34C1686.17 106.373 1683.47 99.3133 1678.06 94.16C1672.65 89.0066 1664.8 86.43 1654.49 86.43H1616.08V144.65Z" fill="black"/>
<path d="M141.37 300.65L85.93 197.65H77.62V300.65H0V21.47H122.36C144.8 21.47 163.8 25.3633 179.36 33.15C194.92 40.9366 206.667 51.63 214.6 65.23C222.52 78.83 226.48 94.0766 226.48 110.97C226.48 129.97 221.267 146.667 210.84 161.06C200.413 175.453 185.167 185.683 165.1 191.75L228.1 300.65H141.37ZM77.62 144.65H116C126.547 144.65 134.467 142.14 139.76 137.12C145.053 132.1 147.693 124.84 147.68 115.34C147.68 106.373 144.973 99.3133 139.56 94.16C134.147 89.0066 126.293 86.4233 116 86.41H77.62V144.65Z" fill="black"/>
<path d="M323.53 83.64V129.18H412.63V188.18H323.53V238.47H424.53V300.64H245.91V21.47H424.51V83.64H323.53Z" fill="black"/>
<path d="M631.61 255.11H532.61L517.61 300.65H436L537.76 21.47H627.26L728.63 300.65H646.63L631.61 255.11ZM612.21 195.71L582.11 105.42L552.41 195.71H612.21Z" fill="black"/>
<path d="M1006.19 246.89L995.7 236.41C1002.5 224.632 1007.75 212.029 1011.33 198.91C1016.78 178.967 1018.24 158.147 1015.64 137.638C1013.04 117.129 1006.43 97.333 996.179 79.3803C985.928 61.4276 972.241 45.67 955.9 33.0072C939.559 20.3445 920.883 11.0247 900.94 5.57997C817.22 -17.29 730.49 32.22 707.62 116C696.633 156.269 702.089 199.253 722.788 235.5C743.487 271.747 777.735 298.289 818 309.29C831.598 313.014 845.632 314.907 859.73 314.92C883.315 314.907 906.589 309.542 927.8 299.23L862.8 234.23C846.715 234.938 830.813 230.576 817.34 221.761C803.867 212.945 793.503 200.122 787.709 185.099C781.916 170.077 780.987 153.614 785.053 138.035C789.119 122.456 797.974 108.548 810.37 98.272C822.765 87.9965 838.075 81.8731 854.137 80.7661C870.2 79.6591 886.205 83.6244 899.893 92.1023C913.581 100.58 924.261 113.143 930.425 128.017C936.59 142.891 937.928 159.325 934.25 175L887.25 128C879.691 120.441 869.44 116.195 858.75 116.195C848.06 116.195 837.809 120.441 830.25 128C822.691 135.559 818.445 145.81 818.445 156.5C818.445 167.19 822.691 177.441 830.25 185L949.15 303.91C952.893 307.653 957.336 310.621 962.226 312.647C967.116 314.673 972.357 315.715 977.65 315.715C982.943 315.715 988.184 314.673 993.074 312.647C997.964 310.621 1002.41 307.653 1006.15 303.91C1009.89 300.167 1012.86 295.724 1014.89 290.834C1016.91 285.944 1017.96 280.703 1017.96 275.41C1017.96 270.117 1016.91 264.876 1014.89 259.986C1012.86 255.096 1009.89 250.653 1006.15 246.91L1006.19 246.89ZM739 108.37C741.767 101.505 745.113 94.8882 749 88.59C749.828 87.223 750.919 86.0338 752.209 85.0911C753.5 84.1484 754.965 83.4709 756.519 83.0979C758.073 82.7248 759.685 82.6636 761.263 82.9177C762.841 83.1718 764.353 83.7363 765.711 84.5784C767.069 85.4205 768.247 86.5235 769.177 87.8237C770.106 89.1239 770.768 90.5955 771.125 92.1533C771.482 93.7111 771.527 95.3242 771.256 96.8994C770.986 98.4745 770.406 99.9804 769.55 101.33C766.371 106.456 763.638 111.846 761.38 117.44C760.37 119.93 758.559 122.012 756.234 123.359C753.91 124.707 751.202 125.241 748.54 124.88C747.546 124.74 746.572 124.482 745.64 124.11C742.674 122.901 740.309 120.565 739.064 117.614C737.819 114.662 737.796 111.338 739 108.37ZM834.43 273.05C834.607 271.473 835.092 269.945 835.859 268.556C836.627 267.166 837.66 265.941 838.901 264.951C840.141 263.961 841.565 263.225 843.09 262.786C844.616 262.346 846.213 262.212 847.79 262.39C853.782 263.069 859.821 263.23 865.84 262.87C867.449 262.732 869.07 262.918 870.606 263.417C872.142 263.916 873.563 264.718 874.784 265.775C876.005 266.832 877.002 268.123 877.716 269.572C878.43 271.021 878.846 272.598 878.941 274.211C879.035 275.823 878.805 277.438 878.265 278.96C877.725 280.482 876.885 281.881 875.795 283.073C874.705 284.265 873.388 285.227 871.92 285.901C870.452 286.576 868.864 286.949 867.25 287C859.853 287.438 852.433 287.241 845.07 286.41H844.78C841.648 285.981 838.809 284.342 836.87 281.845C834.932 279.348 834.049 276.191 834.41 273.05H834.43ZM816.49 253.89C819.112 255.097 821.216 257.202 822.422 259.824C823.628 262.447 823.857 265.414 823.068 268.19C822.278 270.966 820.522 273.369 818.117 274.965C815.711 276.56 812.815 277.243 809.95 276.89C808.817 276.736 807.712 276.419 806.67 275.95C786.271 266.865 768.551 252.687 755.213 234.777C741.876 216.866 733.369 195.827 730.51 173.68C730.103 170.497 730.977 167.283 732.939 164.745C734.902 162.207 737.792 160.552 740.975 160.145C744.158 159.738 747.372 160.612 749.91 162.574C752.448 164.537 754.103 167.427 754.51 170.61C756.84 188.636 763.767 205.761 774.625 220.338C785.482 234.915 799.906 246.455 816.51 253.85L816.49 253.89ZM989.49 153.77C989.669 160.77 989.281 167.773 988.33 174.71C988.27 175.11 988.22 175.52 988.16 175.92C987.697 179.072 986.009 181.915 983.462 183.83C980.916 185.745 977.717 186.579 974.56 186.15H974.45C972.879 185.921 971.368 185.385 970.005 184.572C968.641 183.759 967.451 182.685 966.503 181.411C965.555 180.138 964.867 178.69 964.479 177.151C964.09 175.612 964.009 174.011 964.24 172.44L964.38 171.44C965.151 165.808 965.465 160.123 965.32 154.44C965.28 151.261 966.493 148.194 968.698 145.904C970.903 143.613 973.921 142.283 977.099 142.201C980.277 142.12 983.36 143.293 985.679 145.468C987.998 147.643 989.367 150.643 989.49 153.82V153.77ZM828.19 56.06C822.426 57.8478 816.825 60.1261 811.45 62.87C810.036 63.5922 808.493 64.0289 806.91 64.1549C805.327 64.281 803.734 64.094 802.224 63.6046C800.713 63.1152 799.313 62.3331 798.105 61.3028C796.896 60.2725 795.902 59.0143 795.18 57.6C794.458 56.1856 794.021 54.6429 793.895 53.0598C793.769 51.4767 793.956 49.8843 794.445 48.3735C794.935 46.8627 795.717 45.4631 796.747 44.2545C797.777 43.046 799.036 42.0522 800.45 41.33C807.054 37.9805 813.928 35.1939 821 33C822.531 32.4758 824.151 32.2639 825.765 32.377C827.379 32.49 828.955 32.9257 830.397 33.6581C831.84 34.3906 833.121 35.405 834.165 36.6413C835.209 37.8776 835.994 39.3108 836.475 40.8559C836.955 42.4011 837.12 44.0269 836.961 45.6371C836.802 47.2474 836.322 48.8093 835.548 50.2306C834.775 51.6519 833.724 52.9037 832.459 53.9118C831.193 54.92 829.738 55.664 828.18 56.1L828.19 56.06ZM873.72 52.29C869.253 51.667 864.75 51.333 860.24 51.29C857.034 51.2648 853.968 49.9668 851.719 47.6817C849.469 45.3966 848.22 42.3114 848.245 39.105C848.27 35.8985 849.568 32.8334 851.853 30.5839C854.138 28.3344 857.224 27.0848 860.43 27.11C865.974 27.17 871.508 27.5808 877 28.34C896.359 30.923 914.882 37.8565 931.18 48.6202C947.477 59.384 961.125 73.6985 971.1 90.49C971.965 91.8543 972.547 93.3782 972.813 94.9714C973.079 96.5647 973.023 98.195 972.648 99.7663C972.273 101.338 971.588 102.818 970.631 104.119C969.675 105.421 968.468 106.518 967.08 107.346C965.693 108.173 964.154 108.714 962.554 108.936C960.954 109.159 959.326 109.059 957.765 108.641C956.205 108.224 954.744 107.499 953.468 106.507C952.193 105.516 951.129 104.279 950.34 102.87C942.212 89.2047 931.098 77.5559 917.828 68.7964C904.559 60.0369 889.48 54.3938 873.72 52.29ZM881.58 179.29C880.459 180.415 879.126 181.308 877.659 181.918C876.192 182.527 874.619 182.84 873.03 182.84C871.441 182.84 869.868 182.527 868.401 181.918C866.934 181.308 865.601 180.415 864.48 179.29L850.24 165C847.974 162.734 846.701 159.66 846.701 156.455C846.701 153.25 847.974 150.176 850.24 147.91C852.506 145.644 855.58 144.371 858.785 144.371C861.99 144.371 865.064 145.644 867.33 147.91L881.58 162.16C882.706 163.282 883.599 164.616 884.208 166.084C884.818 167.552 885.131 169.125 885.131 170.715C885.131 172.304 884.818 173.878 884.208 175.346C883.599 176.814 882.706 178.148 881.58 179.27V179.29ZM986.24 283.94C983.969 286.201 980.895 287.47 977.69 287.47C974.485 287.47 971.411 286.201 969.14 283.94L890.14 204.94C887.874 202.674 886.601 199.6 886.601 196.395C886.601 193.19 887.874 190.116 890.14 187.85C892.406 185.584 895.48 184.311 898.685 184.311C901.89 184.311 904.964 185.584 907.23 187.85L986.23 266.85C988.494 269.117 989.766 272.189 989.768 275.393C989.77 278.597 988.501 281.67 986.24 283.94Z" fill="black"/>
</g>
<defs>
<clipPath id="clip0">
<rect width="1766.56" height="315.68" fill="white"/>
</clipPath>
</defs>
</svg>
