<svg width="1024" height="200" viewBox="0 0 1024 200" fill="none" xmlns="http://www.w3.org/2000/svg">
<g clip-path="url(#clip0)">
<g clip-path="url(#clip1)">
<path d="M4917.04 5806.2C3673.46 5806.2 2421.07 5638.62 1186.31 5303.47C-2429.76 4315.66 -5446.09 1969.6 -7315.87 -1284.89C-9185.64 -4539.38 -9661.9 -8340.69 -8665.28 -11956.8C-6619.11 -19444.8 1124.58 -23863.5 8603.67 -21817.3C12228.6 -20829.5 15244.9 -18483.4 17105.8 -15228.9C18966.8 -11965.6 19451.9 -8173.12 18455.3 -4557.02C17467.5 -932.098 15121.4 2084.26 11867 3945.23C9714.95 5179.99 7333.64 5806.2 4917.04 5806.2ZM4899.4 -15123.1C1883.07 -15123.1 -886.313 -13112.2 -1724.18 -10069.4C-2209.27 -8305.41 -1971.13 -6453.26 -1062.71 -4856.89C-154.279 -3260.51 1318.61 -2122.76 3091.37 -1637.68C4855.3 -1152.59 6707.44 -1390.72 8303.8 -2299.16C9891.35 -3207.59 11037.9 -4680.49 11523 -6453.27C12008.1 -8217.22 11769.9 -10069.4 10861.5 -11665.7C9953.08 -13253.3 8480.19 -14399.9 6707.44 -14885C6098.88 -15043.7 5499.14 -15123.1 4899.4 -15123.1Z" fill="url(#paint0_linear)"/>
<path d="M471.919 2410.6C374.903 2392.96 277.886 2366.5 180.869 2331.22C-2244.54 1255.21 -4246.61 -641.037 -5446.09 -3013.55C-6054.65 -4213.04 -6451.54 -5483.08 -6619.11 -6806.05C-6698.49 -7396.97 -6275.14 -7934.98 -5684.22 -8014.35C-5093.3 -8093.73 -4555.3 -7670.38 -4475.93 -7079.46C-4334.81 -6003.45 -4017.3 -4962.72 -3523.4 -3992.54C-2544.41 -2061.02 -912.772 -517.559 1054.02 355.597C1600.84 593.731 1847.79 1237.57 1600.84 1784.4C1406.81 2234.2 939.363 2481.16 471.919 2410.6Z" fill="url(#paint1_linear)"/>
<path d="M15456.6 5876.76C14539.3 5876.76 13613.3 5523.97 12907.7 4818.39L2288.77 -5800.6C886.442 -7202.94 886.442 -9487.25 2288.77 -10889.6C3691.1 -12291.9 5975.4 -12291.9 7377.73 -10889.6L17996.6 -270.608C19399 1131.73 19399 3416.05 17996.6 4818.39C17299.9 5523.97 16373.8 5876.76 15456.6 5876.76Z" fill="url(#paint2_linear)"/>
</g>
<path d="M195.084 156.157H209.723V166.007H181.981V119.711H195.084V156.157Z" fill="white"/>
<path d="M225.232 130.021V137.573H240.273V147.356H225.232V155.697H242.282V166.007H212.131V119.711H242.271V130.021H225.232Z" fill="white"/>
<path d="M255.178 163.413C251.524 161.42 248.487 158.492 246.388 154.941C244.225 151.329 243.144 147.247 243.146 142.695C243.147 138.142 244.228 134.06 246.388 130.447C248.481 126.9 251.521 123.983 255.178 122.01C258.876 119.993 262.932 118.985 267.346 118.985C271.801 118.985 275.868 119.992 279.546 122.006C283.184 123.982 286.201 126.901 288.268 130.443C290.406 134.055 291.475 138.138 291.475 142.691C291.475 147.245 290.406 151.327 288.268 154.938C286.189 158.492 283.161 161.421 279.512 163.41C275.812 165.444 271.756 166.462 267.346 166.463C262.936 166.464 258.88 165.447 255.178 163.413V163.413ZM275.266 151.296C277.207 149.151 278.176 146.284 278.175 142.695C278.175 139.017 277.205 136.116 275.266 133.994C273.327 131.871 270.687 130.809 267.346 130.808C263.957 130.808 261.305 131.87 259.39 133.994C257.475 136.118 256.518 139.018 256.52 142.695C256.52 146.327 257.477 149.206 259.39 151.329C261.303 153.453 263.955 154.515 267.346 154.515C270.688 154.515 273.328 153.442 275.266 151.296Z" fill="white"/>
<path d="M337 166.007H323.899L306.451 140.138V166.007H293.349V119.711H306.451L323.899 145.912V119.711H337V166.007Z" fill="white"/>
<path d="M80.6522 166.007H67.5544L50.108 140.138V166.007H37V119.711H50.1029L67.5544 145.912V119.711H80.6573L80.6522 166.007Z" fill="white"/>
<path d="M96.9624 119.711V146.575C96.9624 149.071 97.5533 150.997 98.7349 152.354C99.9166 153.712 101.71 154.391 104.115 154.391C106.522 154.391 108.338 153.701 109.564 152.321C110.79 150.942 111.402 149.026 111.402 146.575V119.711H124.504V146.575C124.504 150.822 123.59 154.444 121.764 157.444C120.014 160.369 117.422 162.721 114.314 164.201C111.172 165.711 107.683 166.466 103.848 166.466C100.013 166.466 96.5922 165.711 93.5863 164.201C90.5902 162.705 88.1203 160.361 86.4963 157.47C84.7846 154.493 83.9287 150.859 83.9287 146.569V119.705L96.9624 119.711Z" fill="white"/>
<path d="M177.567 157.024L175.796 155.286C176.944 153.333 177.831 151.243 178.435 149.068C179.354 145.761 179.602 142.308 179.163 138.907C178.724 135.506 177.607 132.223 175.877 129.246C174.146 126.269 171.836 123.656 169.077 121.557C166.319 119.457 163.166 117.911 159.8 117.008C145.667 113.216 131.026 121.426 127.166 135.312C125.309 141.991 126.229 149.12 129.723 155.133C133.218 161.145 139 165.547 145.799 167.372C148.094 167.989 150.463 168.303 152.843 168.305C156.824 168.303 160.753 167.413 164.334 165.703L153.361 154.925C150.646 155.041 147.963 154.317 145.689 152.855C143.415 151.392 141.666 149.265 140.689 146.774C139.712 144.283 139.556 141.554 140.242 138.971C140.929 136.388 142.424 134.082 144.517 132.378C146.609 130.674 149.193 129.659 151.905 129.476C154.616 129.293 157.317 129.95 159.628 131.356C161.938 132.762 163.741 134.845 164.782 137.311C165.822 139.777 166.048 142.502 165.428 145.101L157.494 137.307C156.218 136.054 154.487 135.35 152.683 135.35C150.878 135.35 149.148 136.054 147.872 137.307C146.596 138.561 145.879 140.261 145.879 142.033C145.879 143.806 146.596 145.506 147.872 146.759L167.945 166.474C168.577 167.095 169.327 167.587 170.152 167.923C170.978 168.259 171.862 168.432 172.756 168.432C173.649 168.432 174.534 168.259 175.36 167.923C176.185 167.587 176.935 167.095 177.567 166.474C178.199 165.854 178.7 165.117 179.042 164.306C179.384 163.495 179.56 162.626 179.56 161.748C179.56 160.871 179.384 160.002 179.042 159.191C178.7 158.38 178.199 157.643 177.567 157.022V157.024ZM132.46 134.054C132.927 132.915 133.491 131.818 134.148 130.774C134.287 130.547 134.472 130.35 134.689 130.193C134.907 130.037 135.154 129.925 135.417 129.863C135.679 129.801 135.951 129.791 136.218 129.833C136.484 129.875 136.739 129.969 136.969 130.108C137.198 130.248 137.397 130.431 137.554 130.647C137.71 130.862 137.822 131.106 137.883 131.365C137.943 131.623 137.95 131.89 137.905 132.152C137.859 132.413 137.761 132.662 137.617 132.886C137.081 133.736 136.62 134.629 136.237 135.556C136.067 135.969 135.762 136.315 135.369 136.539C134.977 136.762 134.52 136.851 134.07 136.791C133.902 136.768 133.738 136.725 133.58 136.662C133.332 136.563 133.107 136.417 132.916 136.233C132.726 136.048 132.574 135.828 132.47 135.586C132.366 135.344 132.311 135.084 132.309 134.821C132.308 134.558 132.359 134.297 132.46 134.054V134.054ZM148.569 161.362C148.599 161.1 148.681 160.847 148.81 160.617C148.94 160.386 149.114 160.183 149.324 160.019C149.533 159.855 149.773 159.733 150.031 159.66C150.288 159.587 150.558 159.565 150.824 159.594C151.836 159.707 152.855 159.734 153.871 159.674C154.142 159.652 154.415 159.683 154.674 159.765C154.933 159.848 155.172 159.981 155.378 160.156C155.584 160.331 155.752 160.545 155.872 160.785C155.993 161.024 156.063 161.285 156.079 161.552C156.095 161.819 156.057 162.087 155.967 162.339C155.876 162.591 155.735 162.823 155.552 163.02C155.369 163.218 155.147 163.378 154.901 163.491C154.654 163.603 154.386 163.666 154.114 163.675C152.865 163.748 151.612 163.715 150.368 163.577H150.319C149.791 163.506 149.312 163.234 148.985 162.82C148.658 162.406 148.508 161.883 148.569 161.362ZM145.544 158.185C145.986 158.385 146.342 158.734 146.545 159.169C146.749 159.604 146.787 160.096 146.654 160.556C146.521 161.017 146.225 161.415 145.818 161.68C145.412 161.944 144.923 162.057 144.44 161.999C144.249 161.973 144.063 161.921 143.888 161.843C140.444 160.338 137.452 157.988 135.2 155.019C132.948 152.05 131.51 148.562 131.026 144.89C130.957 144.363 131.105 143.83 131.436 143.409C131.767 142.988 132.255 142.713 132.792 142.645C133.058 142.612 133.328 142.63 133.587 142.699C133.846 142.768 134.088 142.886 134.301 143.047C134.729 143.373 135.009 143.852 135.078 144.38C135.471 147.369 136.64 150.209 138.473 152.627C140.306 155.044 142.741 156.958 145.544 158.185V158.185ZM174.748 141.582C174.778 142.743 174.712 143.904 174.552 145.055C174.542 145.121 174.533 145.189 174.523 145.255C174.445 145.778 174.161 146.25 173.731 146.567C173.301 146.885 172.76 147.023 172.227 146.952H172.209C171.944 146.914 171.689 146.825 171.459 146.69C171.228 146.555 171.027 146.377 170.867 146.166C170.707 145.955 170.591 145.715 170.526 145.459C170.46 145.204 170.446 144.939 170.485 144.678L170.509 144.512C170.639 143.578 170.692 142.636 170.668 141.693C170.661 141.166 170.866 140.658 171.238 140.278C171.61 139.898 172.12 139.677 172.656 139.664C173.193 139.65 173.713 139.845 174.104 140.206C174.496 140.566 174.727 141.064 174.748 141.591V141.582ZM147.519 125.379C146.548 125.676 145.605 126.054 144.7 126.509C144.217 126.749 143.657 126.792 143.143 126.627C142.628 126.463 142.201 126.105 141.955 125.631C141.71 125.158 141.665 124.609 141.832 124.104C141.998 123.598 142.362 123.179 142.843 122.937C143.956 122.379 145.116 121.915 146.309 121.549C146.567 121.462 146.841 121.427 147.113 121.445C147.385 121.464 147.651 121.536 147.895 121.658C148.138 121.779 148.355 121.948 148.531 122.153C148.707 122.358 148.84 122.595 148.921 122.851C149.002 123.108 149.03 123.377 149.003 123.644C148.976 123.911 148.895 124.17 148.764 124.406C148.634 124.642 148.457 124.849 148.243 125.016C148.029 125.184 147.784 125.307 147.521 125.379H147.519ZM155.206 124.754C154.452 124.651 153.692 124.596 152.931 124.588C152.655 124.599 152.379 124.554 152.121 124.457C151.863 124.36 151.628 124.212 151.43 124.023C151.231 123.834 151.074 123.607 150.968 123.356C150.861 123.106 150.808 122.837 150.811 122.565C150.814 122.294 150.872 122.025 150.984 121.777C151.095 121.528 151.257 121.305 151.459 121.12C151.661 120.934 151.899 120.791 152.159 120.699C152.419 120.607 152.696 120.568 152.971 120.584C153.907 120.592 154.841 120.658 155.769 120.783C159.035 121.213 162.16 122.364 164.909 124.149C167.658 125.934 169.961 128.307 171.643 131.09C171.786 131.317 171.882 131.568 171.925 131.831C171.968 132.094 171.957 132.363 171.893 132.622C171.829 132.88 171.713 133.124 171.552 133.338C171.391 133.553 171.188 133.733 170.956 133.87C170.723 134.006 170.465 134.096 170.196 134.133C169.928 134.17 169.655 134.155 169.393 134.088C169.13 134.02 168.884 133.902 168.669 133.74C168.454 133.578 168.274 133.376 168.139 133.145C166.768 130.878 164.892 128.946 162.652 127.493C160.412 126.04 157.867 125.103 155.206 124.754V124.754ZM156.532 145.814C156.342 146.001 156.117 146.149 155.87 146.25C155.622 146.351 155.356 146.403 155.088 146.403C154.82 146.403 154.555 146.351 154.307 146.25C154.059 146.149 153.834 146.001 153.645 145.814L151.241 143.451C151.046 143.266 150.89 143.045 150.783 142.8C150.676 142.555 150.62 142.292 150.617 142.026C150.615 141.76 150.667 141.495 150.769 141.249C150.872 141.002 151.024 140.778 151.215 140.59C151.407 140.402 151.635 140.253 151.886 140.152C152.137 140.052 152.406 140.001 152.677 140.004C152.949 140.006 153.216 140.062 153.465 140.167C153.714 140.272 153.94 140.425 154.128 140.617L156.532 142.98C156.913 143.356 157.128 143.865 157.128 144.395C157.128 144.926 156.913 145.435 156.532 145.811V145.814ZM174.199 163.168C173.816 163.543 173.297 163.753 172.756 163.753C172.215 163.753 171.696 163.543 171.313 163.168L157.977 150.068C157.606 149.689 157.4 149.183 157.405 148.658C157.41 148.132 157.625 147.63 158.004 147.258C158.382 146.887 158.893 146.676 159.428 146.672C159.963 146.667 160.478 146.869 160.863 147.234L174.199 160.334C174.581 160.71 174.796 161.22 174.796 161.751C174.796 162.282 174.581 162.792 174.199 163.168V163.168Z" fill="white" stroke="white" stroke-miterlimit="10"/>
</g>
<defs>
<linearGradient id="paint0_linear" x1="-9168" y1="-8256.62" x2="18963.2" y2="-8256.62" gradientUnits="userSpaceOnUse">
<stop stop-color="#E9D11A"/>
<stop offset="1" stop-color="#F07F05"/>
</linearGradient>
<linearGradient id="paint1_linear" x1="-4050.16" y1="-1215.15" x2="-912.58" y2="-4352.7" gradientUnits="userSpaceOnUse">
<stop stop-color="#F07F05"/>
<stop offset="1" stop-color="#E9D11A"/>
</linearGradient>
<linearGradient id="paint2_linear" x1="1237.15" y1="-3034.07" x2="19055" y2="-3034.07" gradientUnits="userSpaceOnUse">
<stop stop-color="#E9D11A"/>
<stop offset="1" stop-color="#F07F05"/>
</linearGradient>
<clipPath id="clip0">
<rect width="1024" height="200" fill="white"/>
</clipPath>
<clipPath id="clip1">
<rect width="1024" height="576" fill="white" transform="translate(0 -212)"/>
</clipPath>
</defs>
</svg>
