<svg width="1024" height="200" viewBox="0 0 1024 200" fill="none" xmlns="http://www.w3.org/2000/svg">
<g clip-path="url(#clip0)">
<g clip-path="url(#clip1)">
<path d="M1702.31 1657.7C1317.33 1657.7 929.63 1605.83 547.386 1502.08C-572.042 1196.29 -1505.81 470.052 -2084.64 -537.403C-2663.46 -1544.86 -2810.9 -2721.59 -2502.37 -3840.98C-1868.94 -6158.95 528.274 -7526.79 2843.58 -6893.38C3965.74 -6587.59 4899.5 -5861.35 5475.6 -4853.9C6051.7 -3843.71 6201.86 -2669.71 5893.34 -1550.32C5587.54 -428.194 4861.28 505.545 3853.8 1081.62C3187.6 1463.86 2450.41 1657.7 1702.31 1657.7ZM1696.85 -4821.13C763.081 -4821.13 -94.2371 -4198.64 -353.617 -3256.71C-503.784 -2710.67 -430.066 -2137.32 -148.843 -1643.15C132.379 -1148.97 588.341 -796.775 1137.13 -646.612C1683.2 -496.449 2256.56 -570.166 2750.75 -851.379C3242.21 -1132.59 3597.15 -1588.54 3747.31 -2137.32C3897.48 -2683.36 3823.76 -3256.71 3542.54 -3750.88C3261.32 -4242.33 2805.35 -4597.26 2256.56 -4747.42C2068.17 -4796.56 1882.51 -4821.13 1696.85 -4821.13Z" fill="url(#paint0_linear)"/>
<path d="M1290.03 868.668C1109.83 844.096 984.236 680.282 1003.35 500.087C1025.19 317.162 1189.01 183.381 1371.94 205.223C1538.49 224.334 1705.04 227.064 1871.59 218.874C2054.52 207.953 2212.88 347.195 2223.8 532.85C2234.72 715.776 2095.47 874.129 1909.81 885.05C1705.04 895.971 1500.27 890.51 1295.49 868.668C1295.49 868.668 1292.76 868.668 1290.03 868.668Z" fill="url(#paint1_linear)"/>
<path d="M326.233 606.565C296.199 601.105 266.166 592.914 236.132 581.994C-514.704 248.905 -1134.48 -338.094 -1505.81 -1072.53C-1694.2 -1443.84 -1817.06 -1836.99 -1868.94 -2246.53C-1893.51 -2429.45 -1762.46 -2595.99 -1579.53 -2620.57C-1396.59 -2645.14 -1230.05 -2514.09 -1205.47 -2331.16C-1161.79 -1998.07 -1063.5 -1675.91 -910.599 -1375.58C-607.534 -777.661 -102.426 -299.871 506.433 -29.5779C675.713 44.1383 752.161 243.445 675.713 412.719C615.646 551.961 470.939 628.407 326.233 606.565Z" fill="url(#paint2_linear)"/>
<path d="M4965.03 1679.55C4681.08 1679.55 4394.4 1570.34 4175.97 1351.92L888.675 -1935.28C454.556 -2369.39 454.556 -3076.52 888.675 -3510.62C1322.79 -3944.73 2029.95 -3944.73 2464.07 -3510.62L5751.36 -223.425C6185.48 210.682 6185.48 917.812 5751.36 1351.92C5535.67 1570.34 5248.99 1679.55 4965.03 1679.55Z" fill="url(#paint3_linear)"/>
</g>
<path d="M247.156 119.648V129.888H234.514V165.939H221.333V129.888H208.824V119.648H247.156Z" fill="white"/>
<path d="M258.52 163.345C254.844 161.352 251.789 158.425 249.678 154.873C247.503 151.262 246.416 147.179 246.416 142.627C246.416 138.074 247.503 133.992 249.678 130.381C251.784 126.834 254.841 123.916 258.52 121.942C262.241 119.929 266.321 118.922 270.761 118.92C275.243 118.92 279.334 119.928 283.034 121.942C286.694 123.919 289.729 126.838 291.809 130.381C293.96 133.992 295.035 138.074 295.035 142.627C295.035 147.179 293.96 151.262 291.809 154.873C289.717 158.428 286.671 161.357 283 163.345C279.278 165.38 275.198 166.397 270.761 166.398C266.324 166.399 262.244 165.382 258.52 163.345V163.345ZM278.729 151.23C280.68 149.084 281.655 146.217 281.655 142.627C281.655 138.949 280.68 136.049 278.729 133.926C276.778 131.803 274.122 130.742 270.761 130.741C267.353 130.741 264.685 131.802 262.757 133.926C260.829 136.05 259.867 138.95 259.87 142.627C259.87 146.262 260.833 149.14 262.757 151.262C264.682 153.383 267.35 154.445 270.761 154.447C274.124 154.447 276.78 153.375 278.729 151.23Z" fill="white"/>
<path d="M322.273 165.939L312.858 148.859H311.445V165.939H298.264V119.648H319.045C322.853 119.648 326.08 120.294 328.724 121.585C331.369 122.876 333.364 124.65 334.711 126.905C336.06 129.157 336.735 131.683 336.735 134.485C336.735 137.635 335.849 140.404 334.077 142.791C332.305 145.178 329.717 146.874 326.311 147.88L337.01 165.939H322.273ZM311.445 140.07H317.968C319.761 140.07 321.106 139.654 322.003 138.821C322.9 137.989 323.348 136.785 323.348 135.209C323.348 133.722 322.888 132.552 321.969 131.697C321.05 130.843 319.716 130.415 317.968 130.415H311.445V140.07Z" fill="white"/>
<path d="M61.0077 165.939L51.5928 148.859H50.1816V165.939H37V119.648H57.7794C61.5902 119.648 64.8168 120.294 67.4592 121.585C70.1016 122.876 72.0965 124.65 73.4437 126.905C74.7887 129.16 75.4612 131.688 75.4612 134.49C75.4612 137.64 74.5759 140.409 72.8052 142.796C71.0345 145.183 68.4453 146.879 65.0375 147.885L75.7363 165.944L61.0077 165.939ZM50.1816 140.07H56.6993C58.4904 140.07 59.8353 139.654 60.7343 138.821C61.6332 137.989 62.0815 136.785 62.0792 135.209C62.0792 133.722 61.6196 132.552 60.7003 131.697C59.781 130.843 58.4473 130.414 56.6993 130.412H50.1816V140.07Z" fill="white"/>
<path d="M91.9425 129.953V137.504H107.074V147.288H91.9425V155.633H109.094V165.942H78.761V119.648H109.091V129.953H91.9425Z" fill="white"/>
<path d="M144.261 158.387H127.449L124.901 165.939H111.042L128.323 119.648H143.522L160.737 165.939H146.812L144.261 158.387ZM140.966 148.537L135.855 133.564L130.811 148.537H140.966Z" fill="white"/>
<path d="M207.873 157.024L206.091 155.286C207.246 153.333 208.138 151.243 208.746 149.068C209.671 145.761 209.92 142.308 209.478 138.907C209.037 135.506 207.913 132.223 206.173 129.246C204.432 126.269 202.107 123.656 199.332 121.557C196.557 119.457 193.386 117.911 189.999 117.008C175.782 113.216 161.053 121.426 157.169 135.312C155.301 141.991 156.227 149.12 159.742 155.133C163.257 161.145 169.075 165.547 175.914 167.372C178.223 167.989 180.605 168.303 182.999 168.305C187.005 168.303 190.958 167.413 194.56 165.703L183.522 154.925C180.791 155.041 178.091 154.317 175.803 152.855C173.516 151.392 171.757 149.265 170.774 146.774C169.791 144.283 169.633 141.554 170.324 138.971C171.015 136.388 172.519 134.082 174.624 132.378C176.729 130.674 179.329 129.659 182.056 129.476C184.784 129.293 187.502 129.95 189.826 131.356C192.15 132.762 193.964 134.845 195.011 137.311C196.058 139.777 196.285 142.502 195.661 145.101L187.679 137.307C186.396 136.054 184.655 135.35 182.839 135.35C181.024 135.35 179.283 136.054 177.999 137.307C176.716 138.561 175.995 140.261 175.995 142.033C175.995 143.806 176.716 145.506 177.999 146.759L198.191 166.478C199.475 167.731 201.216 168.435 203.031 168.435C204.846 168.435 206.587 167.731 207.871 166.478C209.155 165.224 209.876 163.524 209.876 161.752C209.876 159.979 209.155 158.279 207.871 157.026L207.873 157.024ZM162.498 134.054C162.968 132.915 163.536 131.818 164.196 130.774C164.337 130.547 164.522 130.35 164.741 130.193C164.961 130.037 165.209 129.925 165.473 129.863C165.737 129.801 166.011 129.791 166.279 129.833C166.547 129.875 166.804 129.969 167.034 130.108C167.265 130.248 167.465 130.431 167.623 130.647C167.781 130.862 167.893 131.106 167.954 131.365C168.014 131.623 168.022 131.89 167.976 132.152C167.93 132.413 167.832 132.662 167.686 132.886C167.147 133.736 166.682 134.629 166.299 135.556C166.075 136.02 165.679 136.383 165.19 136.571C164.701 136.758 164.157 136.755 163.67 136.562C163.183 136.37 162.79 136.003 162.572 135.536C162.354 135.069 162.328 134.539 162.498 134.054V134.054ZM178.704 161.362C178.734 161.1 178.817 160.847 178.947 160.617C179.077 160.386 179.253 160.183 179.463 160.019C179.674 159.855 179.916 159.733 180.175 159.66C180.434 159.587 180.705 159.565 180.973 159.594C181.99 159.707 183.016 159.734 184.038 159.674C184.311 159.651 184.586 159.682 184.847 159.765C185.107 159.848 185.348 159.981 185.555 160.156C185.762 160.331 185.931 160.545 186.053 160.785C186.174 161.025 186.245 161.286 186.261 161.553C186.277 161.82 186.238 162.088 186.147 162.34C186.056 162.592 185.914 162.824 185.729 163.022C185.545 163.219 185.321 163.379 185.073 163.491C184.824 163.604 184.555 163.666 184.281 163.675C183.025 163.748 181.765 163.715 180.514 163.577H180.465C179.933 163.507 179.45 163.236 179.12 162.822C178.79 162.407 178.639 161.883 178.701 161.362H178.704ZM175.658 158.185C176.103 158.385 176.46 158.734 176.665 159.169C176.87 159.604 176.909 160.096 176.775 160.556C176.641 161.017 176.342 161.415 175.934 161.68C175.525 161.944 175.033 162.057 174.547 161.999C174.355 161.973 174.167 161.921 173.99 161.843C170.526 160.336 167.516 157.985 165.251 155.015C162.986 152.045 161.542 148.556 161.056 144.884C161.022 144.623 161.041 144.357 161.111 144.103C161.182 143.849 161.303 143.61 161.468 143.402C161.633 143.193 161.839 143.019 162.073 142.888C162.307 142.757 162.565 142.672 162.833 142.639C163.1 142.605 163.372 142.623 163.632 142.692C163.893 142.761 164.137 142.88 164.35 143.041C164.564 143.202 164.743 143.402 164.877 143.631C165.011 143.86 165.098 144.112 165.132 144.373C165.528 147.363 166.704 150.203 168.548 152.62C170.391 155.038 172.841 156.952 175.661 158.178L175.658 158.185ZM205.037 141.582C205.067 142.743 205.001 143.904 204.84 145.055C204.829 145.121 204.821 145.189 204.811 145.255C204.732 145.778 204.445 146.249 204.013 146.567C203.581 146.885 203.037 147.023 202.501 146.952H202.483C202.216 146.914 201.959 146.825 201.728 146.69C201.496 146.555 201.294 146.377 201.133 146.166C200.972 145.955 200.855 145.715 200.789 145.459C200.723 145.204 200.709 144.939 200.749 144.678L200.772 144.512C200.903 143.578 200.957 142.636 200.932 141.693C200.925 141.166 201.131 140.658 201.506 140.278C201.88 139.898 202.393 139.677 202.932 139.664C203.472 139.65 203.996 139.845 204.389 140.206C204.783 140.566 205.016 141.064 205.037 141.591V141.582ZM177.644 125.379C176.666 125.676 175.714 126.054 174.802 126.509C174.561 126.628 174.299 126.701 174.031 126.722C173.762 126.743 173.491 126.712 173.235 126.63C172.978 126.549 172.741 126.42 172.535 126.249C172.33 126.078 172.161 125.869 172.039 125.635C171.916 125.4 171.842 125.144 171.82 124.882C171.799 124.619 171.831 124.355 171.914 124.105C171.997 123.854 172.13 123.622 172.305 123.422C172.48 123.221 172.693 123.056 172.934 122.937C174.055 122.379 175.222 121.915 176.423 121.549C176.683 121.462 176.959 121.427 177.233 121.445C177.507 121.464 177.774 121.536 178.019 121.658C178.264 121.779 178.482 121.948 178.659 122.153C178.836 122.358 178.97 122.595 179.051 122.851C179.133 123.108 179.161 123.377 179.134 123.644C179.107 123.911 179.025 124.17 178.894 124.406C178.763 124.642 178.584 124.849 178.369 125.016C178.154 125.184 177.907 125.307 177.643 125.379H177.644ZM185.376 124.754C184.618 124.651 183.853 124.595 183.087 124.588C182.543 124.584 182.022 124.369 181.64 123.99C181.258 123.611 181.046 123.099 181.05 122.568C181.055 122.036 181.275 121.528 181.663 121.155C182.051 120.782 182.575 120.574 183.12 120.579C184.061 120.589 185.001 120.657 185.933 120.783C189.221 121.211 192.367 122.361 195.134 124.147C197.902 125.932 200.22 128.306 201.914 131.09C202.057 131.317 202.154 131.568 202.197 131.831C202.24 132.094 202.229 132.363 202.165 132.622C202.1 132.88 201.984 133.124 201.822 133.338C201.66 133.553 201.456 133.733 201.222 133.87C200.988 134.006 200.728 134.096 200.458 134.133C200.188 134.17 199.913 134.155 199.649 134.088C199.386 134.02 199.138 133.902 198.922 133.74C198.705 133.578 198.524 133.376 198.388 133.145C197.008 130.878 195.121 128.946 192.867 127.493C190.614 126.04 188.053 125.103 185.376 124.754V124.754ZM186.711 145.814C186.521 146.001 186.295 146.149 186.045 146.25C185.796 146.351 185.529 146.403 185.259 146.403C184.989 146.403 184.722 146.351 184.473 146.25C184.224 146.149 183.998 146.001 183.807 145.814L181.389 143.451C181.004 143.075 180.788 142.566 180.788 142.034C180.788 141.503 181.004 140.993 181.389 140.617C181.774 140.241 182.296 140.03 182.84 140.03C183.384 140.03 183.906 140.241 184.291 140.617L186.711 142.98C187.094 143.356 187.31 143.865 187.31 144.395C187.31 144.926 187.094 145.435 186.711 145.811V145.814ZM204.485 163.168C204.099 163.543 203.577 163.753 203.033 163.753C202.489 163.753 201.966 163.543 201.581 163.168L188.165 150.068C187.78 149.692 187.564 149.182 187.564 148.651C187.564 148.119 187.78 147.609 188.165 147.234C188.55 146.858 189.072 146.647 189.616 146.647C190.16 146.647 190.682 146.858 191.067 147.234L204.483 160.334C204.867 160.71 205.084 161.219 205.084 161.751C205.084 162.282 204.869 162.792 204.485 163.168V163.168Z" fill="white" stroke="white" stroke-miterlimit="10"/>
</g>
<defs>
<linearGradient id="paint0_linear" x1="-2658" y1="-2695.56" x2="6050.57" y2="-2695.56" gradientUnits="userSpaceOnUse">
<stop stop-color="#E22786"/>
<stop offset="1" stop-color="#502C85"/>
</linearGradient>
<linearGradient id="paint1_linear" x1="1186.91" y1="971.707" x2="1983.64" y2="174.956" gradientUnits="userSpaceOnUse">
<stop stop-color="#6236A3"/>
<stop offset="0.2441" stop-color="#6536A1"/>
<stop offset="0.4512" stop-color="#70349B"/>
<stop offset="0.6447" stop-color="#813290"/>
<stop offset="0.8289" stop-color="#9A2E82"/>
<stop offset="1" stop-color="#B82A70"/>
</linearGradient>
<linearGradient id="paint2_linear" x1="-1073.67" y1="-515.816" x2="-102.404" y2="-1487.11" gradientUnits="userSpaceOnUse">
<stop stop-color="#6236A3"/>
<stop offset="0.2441" stop-color="#6536A1"/>
<stop offset="0.4512" stop-color="#70349B"/>
<stop offset="0.6447" stop-color="#813290"/>
<stop offset="0.8289" stop-color="#9A2E82"/>
<stop offset="1" stop-color="#B82A70"/>
</linearGradient>
<linearGradient id="paint3_linear" x1="563.124" y1="-1078.88" x2="6079" y2="-1078.88" gradientUnits="userSpaceOnUse">
<stop stop-color="#E22786"/>
<stop offset="1" stop-color="#502C85"/>
</linearGradient>
<clipPath id="clip0">
<rect width="1024" height="200" fill="white"/>
</clipPath>
<clipPath id="clip1">
<rect width="1024" height="576" fill="white" transform="translate(0 -74)"/>
</clipPath>
</defs>
</svg>
