<svg width="1024" height="200" viewBox="0 0 1024 200" fill="none" xmlns="http://www.w3.org/2000/svg">
<g clip-path="url(#clip0)">
<g clip-path="url(#clip1)">
<path d="M-825.691 1842.7C-1210.67 1842.7 -1598.37 1790.83 -1980.61 1687.08C-3100.04 1381.29 -4033.81 655.052 -4612.63 -352.403C-5191.46 -1359.86 -5338.9 -2536.59 -5030.37 -3655.98C-4396.94 -5973.95 -1999.73 -7341.79 315.579 -6708.38C1437.74 -6402.59 2371.5 -5676.35 2947.6 -4668.9C3523.7 -3658.71 3673.86 -2484.71 3365.34 -1365.32C3059.54 -243.194 2333.28 690.545 1325.8 1266.62C659.599 1648.86 -77.5857 1842.7 -825.691 1842.7ZM-831.152 -4636.13C-1764.92 -4636.13 -2622.24 -4013.64 -2881.62 -3071.71C-3031.78 -2525.67 -2958.07 -1952.32 -2676.84 -1458.15C-2395.62 -963.974 -1939.66 -611.775 -1390.87 -461.612C-844.804 -311.449 -271.438 -385.166 222.749 -666.379C714.205 -947.593 1069.15 -1403.54 1219.31 -1952.32C1369.48 -2498.36 1295.76 -3071.71 1014.54 -3565.88C733.317 -4057.33 277.355 -4412.26 -271.438 -4562.42C-459.829 -4611.56 -645.491 -4636.13 -831.152 -4636.13Z" fill="url(#paint0_linear)"/>
<path d="M2437.03 1864.55C2153.08 1864.55 1866.4 1755.34 1647.97 1536.92L-1639.32 -1750.28C-2073.44 -2184.39 -2073.44 -2891.52 -1639.32 -3325.62C-1205.21 -3759.73 -498.054 -3759.73 -63.9343 -3325.62L3223.36 -38.4247C3657.48 395.682 3657.48 1102.81 3223.36 1536.92C3007.67 1755.34 2720.98 1864.55 2437.03 1864.55Z" fill="url(#paint1_linear)"/>
<path opacity="0.2" d="M1358.56 1247.52L-336.966 -447.959C-470.752 -415.196 -607.268 -396.084 -743.783 -390.624L1055.49 1408.6C1145.59 1364.91 1235.69 1318.5 1323.06 1266.63C1336.72 1261.17 1347.64 1255.71 1358.56 1247.52Z" fill="#13091C"/>
<path d="M2437.03 1083.7C2352.39 1083.7 2265.02 1050.94 2199.49 985.412L15.2449 -1198.77C-115.81 -1329.82 -115.81 -1540.05 15.2449 -1671.1C146.3 -1802.15 356.534 -1802.15 487.589 -1671.1L2671.84 513.082C2802.89 644.134 2802.89 854.361 2671.84 985.412C2609.04 1050.94 2521.67 1083.7 2437.03 1083.7ZM-457.099 -1810.34C-541.739 -1810.34 -629.109 -1843.11 -694.636 -1908.63L-1087.8 -2301.79C-1218.86 -2432.84 -1218.86 -2643.06 -1087.8 -2774.12C-956.746 -2905.17 -746.512 -2905.17 -615.457 -2774.12L-222.292 -2380.96C-91.2372 -2249.91 -91.2372 -2039.68 -222.292 -1908.63C-285.089 -1843.11 -372.46 -1810.34 -457.099 -1810.34Z" fill="url(#paint2_linear)"/>
</g>
<path d="M239.747 119.711V129.955H227.551V166.007H214.835V129.955H202.767V119.711H239.747Z" fill="white"/>
<path d="M255.902 119.711V166.007H243.187V119.711H255.902Z" fill="white"/>
<path d="M306.377 119.711L290.617 166.007H274.333L258.505 119.711H272.129L282.51 153.135L292.832 119.711H306.377Z" fill="white"/>
<path d="M320.456 130.021V137.573H335.054V147.356H320.456V155.697H337.003V166.007H307.742V119.711H337.003V130.021H320.456Z" fill="white"/>
<path d="M60.1614 166.007L51.0783 148.927H49.7169V166.007H37V119.711H57.0469C60.7233 119.711 63.8362 120.357 66.3855 121.648C68.9347 122.94 70.8592 124.713 72.159 126.968C73.4566 129.223 74.1054 131.751 74.1054 134.551C74.1054 137.703 73.2512 140.472 71.543 142.859C69.8347 145.246 67.3368 146.942 64.0492 147.948L74.3708 166.007H60.1614ZM49.7169 140.138H56.0049C57.7328 140.138 59.0304 139.722 59.8976 138.891C60.7648 138.06 61.1973 136.856 61.1952 135.279C61.1952 133.792 60.7517 132.621 59.8648 131.765C58.9779 130.91 57.6913 130.481 56.0049 130.48H49.7169V140.138Z" fill="white"/>
<path d="M90.0057 130.021V137.573H104.603V147.356H90.0057V155.697H106.553V166.007H77.2888V119.711H106.55V130.021H90.0057Z" fill="white"/>
<path d="M140.48 158.452H124.26L121.803 166.004H108.432L125.104 119.711H139.767L156.375 166.007H142.941L140.48 158.452ZM137.302 148.602L132.37 133.629L127.504 148.602H137.302Z" fill="white"/>
<path d="M201.764 157.024L200.047 155.286C201.161 153.333 202.021 151.243 202.606 149.068C203.499 145.761 203.74 142.308 203.314 138.907C202.888 135.506 201.805 132.223 200.126 129.246C198.446 126.269 196.204 123.656 193.527 121.556C190.849 119.456 187.789 117.911 184.522 117.008C170.804 113.216 156.6 121.426 152.849 135.312C151.957 138.619 151.717 142.071 152.142 145.472C152.568 148.873 153.651 152.156 155.33 155.133C157.01 158.11 159.252 160.723 161.929 162.823C164.605 164.923 167.665 166.468 170.932 167.372C173.16 167.989 175.459 168.303 177.769 168.305C181.633 168.303 185.447 167.413 188.923 165.703L178.273 154.925C175.639 155.041 173.034 154.317 170.828 152.854C168.622 151.392 166.925 149.265 165.977 146.775C165.029 144.284 164.877 141.555 165.544 138.972C166.21 136.39 167.661 134.084 169.692 132.381C171.722 130.678 174.23 129.663 176.861 129.479C179.492 129.296 182.113 129.953 184.355 131.359C186.597 132.764 188.346 134.846 189.356 137.312C190.366 139.778 190.586 142.502 189.984 145.101L182.284 137.307C181.046 136.054 179.366 135.35 177.615 135.35C175.863 135.35 174.184 136.054 172.945 137.307C171.707 138.561 171.011 140.261 171.011 142.033C171.011 143.806 171.707 145.506 172.945 146.759L192.427 166.474C193.04 167.095 193.768 167.587 194.569 167.923C195.371 168.259 196.229 168.432 197.096 168.432C197.964 168.432 198.822 168.259 199.623 167.923C200.425 167.587 201.152 167.095 201.766 166.474C202.379 165.854 202.865 165.117 203.197 164.306C203.529 163.495 203.7 162.626 203.7 161.748C203.7 160.871 203.529 160.002 203.197 159.191C202.865 158.38 202.379 157.643 201.766 157.022L201.764 157.024ZM157.986 134.054C158.439 132.915 158.987 131.818 159.624 130.774C159.757 130.542 159.935 130.34 160.147 130.179C160.358 130.018 160.6 129.901 160.857 129.836C161.114 129.771 161.381 129.759 161.643 129.801C161.904 129.842 162.155 129.936 162.38 130.078C162.605 130.219 162.8 130.405 162.953 130.623C163.106 130.842 163.214 131.09 163.271 131.352C163.328 131.614 163.332 131.884 163.284 132.148C163.235 132.412 163.135 132.663 162.989 132.886C162.469 133.736 162.022 134.629 161.652 135.556C161.487 135.969 161.191 136.315 160.81 136.539C160.429 136.762 159.985 136.851 159.549 136.791C159.385 136.768 159.225 136.725 159.072 136.662C158.831 136.563 158.612 136.417 158.428 136.232C158.243 136.048 158.096 135.828 157.995 135.586C157.894 135.343 157.841 135.083 157.84 134.821C157.838 134.558 157.888 134.297 157.986 134.054V134.054ZM173.622 161.362C173.651 161.1 173.731 160.847 173.856 160.617C173.982 160.386 174.151 160.183 174.355 160.019C174.558 159.855 174.791 159.733 175.041 159.66C175.291 159.587 175.552 159.565 175.811 159.594C176.79 159.707 177.776 159.733 178.76 159.674C179.023 159.652 179.288 159.683 179.539 159.765C179.79 159.848 180.023 159.981 180.222 160.156C180.422 160.331 180.585 160.545 180.702 160.785C180.819 161.024 180.887 161.285 180.903 161.552C180.919 161.819 180.882 162.087 180.794 162.339C180.706 162.591 180.569 162.823 180.391 163.02C180.214 163.218 179.999 163.378 179.759 163.491C179.519 163.603 179.26 163.666 178.996 163.675C177.783 163.748 176.567 163.715 175.36 163.577H175.313C174.801 163.505 174.338 163.232 174.022 162.818C173.706 162.404 173.562 161.882 173.622 161.362V161.362ZM170.689 158.185C171.119 158.385 171.464 158.734 171.661 159.169C171.859 159.604 171.896 160.096 171.767 160.556C171.638 161.017 171.35 161.415 170.956 161.68C170.562 161.944 170.087 162.057 169.618 161.999C169.433 161.973 169.252 161.921 169.082 161.843C165.74 160.338 162.836 157.988 160.65 155.019C158.464 152.05 157.069 148.562 156.6 144.89C156.533 144.363 156.676 143.83 156.997 143.409C157.318 142.988 157.792 142.713 158.313 142.645C158.835 142.577 159.361 142.722 159.777 143.047C160.193 143.373 160.465 143.852 160.532 144.38C160.913 147.369 162.048 150.209 163.827 152.627C165.606 155.044 167.969 156.958 170.689 158.185V158.185ZM199.033 141.582C199.062 142.743 198.999 143.904 198.843 145.055C198.833 145.121 198.825 145.189 198.815 145.255C198.739 145.778 198.462 146.249 198.045 146.567C197.628 146.885 197.104 147.023 196.587 146.952H196.569C196.311 146.914 196.064 146.825 195.84 146.69C195.617 146.555 195.422 146.377 195.266 146.166C195.111 145.955 194.998 145.715 194.934 145.46C194.87 145.204 194.857 144.939 194.894 144.678L194.917 144.512C195.044 143.578 195.095 142.636 195.071 141.693C195.058 141.162 195.254 140.646 195.616 140.261C195.978 139.875 196.476 139.651 197.001 139.637C197.527 139.623 198.036 139.822 198.417 140.188C198.798 140.554 199.019 141.059 199.033 141.591V141.582ZM172.603 125.379C171.658 125.676 170.74 126.054 169.859 126.509C169.391 126.749 168.847 126.792 168.348 126.628C167.849 126.463 167.435 126.105 167.196 125.631C167.079 125.397 167.008 125.141 166.988 124.878C166.968 124.615 166.999 124.351 167.08 124.101C167.161 123.851 167.29 123.619 167.46 123.419C167.629 123.22 167.836 123.056 168.068 122.937C169.149 122.379 170.275 121.915 171.433 121.549C171.93 121.408 172.462 121.469 172.915 121.719C173.368 121.968 173.707 122.387 173.86 122.885C174.014 123.384 173.969 123.924 173.735 124.389C173.501 124.855 173.098 125.21 172.61 125.379H172.603ZM180.062 124.754C179.331 124.651 178.593 124.596 177.854 124.588C177.329 124.584 176.826 124.369 176.458 123.99C176.089 123.611 175.885 123.099 175.889 122.568C175.893 122.036 176.105 121.528 176.48 121.155C176.854 120.782 177.36 120.574 177.885 120.579C178.793 120.587 179.7 120.653 180.6 120.778C183.772 121.207 186.806 122.358 189.476 124.144C192.146 125.93 194.381 128.305 196.015 131.09C196.154 131.317 196.247 131.568 196.288 131.831C196.33 132.094 196.319 132.363 196.257 132.622C196.195 132.88 196.083 133.124 195.926 133.338C195.77 133.553 195.573 133.733 195.347 133.87C195.122 134.006 194.871 134.096 194.611 134.133C194.35 134.17 194.085 134.155 193.831 134.088C193.576 134.02 193.337 133.902 193.128 133.74C192.92 133.578 192.745 133.376 192.614 133.145C191.283 130.878 189.462 128.946 187.289 127.493C185.115 126.04 182.645 125.103 180.062 124.754V124.754ZM181.35 145.814C181.166 146.001 180.948 146.149 180.707 146.25C180.467 146.351 180.209 146.403 179.949 146.403C179.688 146.403 179.43 146.351 179.19 146.25C178.949 146.149 178.731 146.001 178.547 145.814L176.214 143.451C176.025 143.266 175.873 143.045 175.769 142.8C175.666 142.555 175.611 142.292 175.608 142.026C175.606 141.76 175.656 141.495 175.756 141.249C175.856 141.002 176.003 140.778 176.189 140.59C176.375 140.402 176.596 140.253 176.84 140.152C177.084 140.052 177.345 140.001 177.608 140.004C177.871 140.006 178.131 140.062 178.373 140.167C178.614 140.272 178.833 140.425 179.016 140.617L181.35 142.98C181.72 143.356 181.927 143.865 181.927 144.395C181.927 144.926 181.72 145.435 181.35 145.811V145.814ZM198.496 163.168C198.124 163.543 197.62 163.753 197.096 163.753C196.571 163.753 196.067 163.543 195.696 163.168L182.753 150.068C182.392 149.689 182.193 149.183 182.198 148.658C182.203 148.132 182.412 147.63 182.779 147.258C183.146 146.887 183.642 146.676 184.161 146.672C184.68 146.667 185.181 146.869 185.554 147.234L198.497 160.334C198.868 160.71 199.075 161.22 199.075 161.751C199.075 162.282 198.866 162.792 198.496 163.168Z" fill="white" stroke="white" stroke-miterlimit="10"/>
</g>
<defs>
<linearGradient id="paint0_linear" x1="-5186" y1="-2510.56" x2="3522.57" y2="-2510.56" gradientUnits="userSpaceOnUse">
<stop stop-color="#20F4C6"/>
<stop offset="1" stop-color="#6381FF"/>
</linearGradient>
<linearGradient id="paint1_linear" x1="-1964.88" y1="-893.877" x2="3551" y2="-893.877" gradientUnits="userSpaceOnUse">
<stop stop-color="#20F4C6"/>
<stop offset="1" stop-color="#6381FF"/>
</linearGradient>
<linearGradient id="paint2_linear" x1="525.073" y1="-625.888" x2="1052.5" y2="-1153.33" gradientUnits="userSpaceOnUse">
<stop stop-color="#6381FF"/>
<stop offset="1" stop-color="#20F4C6"/>
</linearGradient>
<clipPath id="clip0">
<rect width="1024" height="200" fill="white"/>
</clipPath>
<clipPath id="clip1">
<rect width="1024" height="576" fill="white" transform="translate(0 -219)"/>
</clipPath>
</defs>
</svg>
