<svg width="316" height="316" viewBox="0 0 316 316" fill="none" xmlns="http://www.w3.org/2000/svg">
<g clip-path="url(#clip0)">
<path d="M304.2 247.14L293.71 236.65C300.511 224.862 305.765 212.245 309.34 199.112C320.343 158.802 314.9 115.767 294.207 79.4748C273.515 43.1821 239.268 16.6036 199 5.58566C115.23 -17.3075 28.4999 32.2527 5.62988 116.118C-5.35739 156.426 0.0972404 199.452 20.7944 235.736C41.4915 272.019 75.7367 298.589 116 309.604C129.598 313.331 143.631 315.227 157.73 315.239C181.315 315.226 204.589 309.856 225.8 299.533L160.8 234.467C144.718 235.17 128.822 230.799 115.354 221.973C101.887 213.147 91.5281 200.31 85.7399 185.274C79.9518 170.238 79.0264 153.763 83.0943 138.172C87.1623 122.582 96.0182 108.663 108.412 98.3814C120.807 88.0995 136.113 81.9729 152.172 80.8664C168.232 79.7598 184.233 83.7291 197.917 92.2141C211.602 100.699 222.279 113.271 228.443 128.157C234.607 143.042 235.945 159.49 232.27 175.177L185.27 128.13C177.711 120.563 167.459 116.313 156.77 116.313C146.08 116.313 135.829 120.563 128.27 128.13C120.711 135.696 116.465 145.958 116.465 156.659C116.465 167.359 120.711 177.621 128.27 185.188L247.2 304.188C254.759 311.754 265.01 316.005 275.7 316.005C286.389 316.005 296.641 311.754 304.2 304.188C311.759 296.622 316.005 286.36 316.005 275.659C316.005 264.959 311.759 254.697 304.2 247.13V247.14ZM36.9999 108.48C39.7671 101.608 43.1124 94.9844 46.9999 88.6798C47.8279 87.3115 48.9188 86.1211 50.2093 85.1774C51.4998 84.2337 52.9645 83.5556 54.5185 83.1822C56.0726 82.8087 57.6851 82.7474 59.263 83.0018C60.8408 83.2562 62.3526 83.8212 63.711 84.6641C65.0693 85.5071 66.2472 86.6113 67.1765 87.9128C68.1058 89.2143 68.7682 90.6874 69.1252 92.2467C69.4821 93.8061 69.5267 95.4209 69.2563 96.9976C68.986 98.5744 68.406 100.082 67.5499 101.433C64.3747 106.567 61.6415 111.961 59.3799 117.559C58.3695 120.051 56.5592 122.136 54.2343 123.485C51.9095 124.833 49.2024 125.368 46.5399 125.007C45.5462 124.865 44.5727 124.607 43.6399 124.236C40.6739 123.026 38.3089 120.687 37.064 117.733C35.819 114.779 35.796 111.451 36.9999 108.48ZM132.43 273.327C132.606 271.748 133.092 270.219 133.859 268.828C134.626 267.437 135.66 266.211 136.901 265.22C138.141 264.229 139.565 263.492 141.09 263.052C142.616 262.612 144.213 262.478 145.79 262.656C151.781 263.336 157.821 263.497 163.84 263.136C165.447 263 167.066 263.188 168.6 263.687C170.134 264.187 171.553 264.989 172.772 266.046C173.992 267.103 174.988 268.394 175.702 269.843C176.415 271.291 176.832 272.868 176.928 274.48C177.023 276.092 176.795 277.707 176.257 279.229C175.72 280.752 174.883 282.151 173.797 283.345C172.71 284.539 171.396 285.503 169.932 286.181C168.467 286.859 166.882 287.236 165.27 287.291C157.87 287.73 150.446 287.532 143.08 286.7H142.79C139.659 286.268 136.821 284.627 134.883 282.128C132.945 279.629 132.061 276.47 132.42 273.327H132.43ZM114.49 254.147C117.112 255.356 119.216 257.463 120.422 260.088C121.628 262.713 121.857 265.683 121.067 268.462C120.278 271.241 118.522 273.646 116.117 275.243C113.711 276.84 110.815 277.524 107.95 277.171C106.82 277.018 105.718 276.701 104.68 276.23C84.2816 267.143 66.5606 252.957 53.2197 235.036C39.8788 217.115 31.3662 196.061 28.4999 173.896C28.0928 170.71 28.9666 167.493 30.9292 164.952C32.8918 162.411 35.7823 160.755 38.9649 160.347C42.1475 159.94 45.3615 160.815 47.8998 162.779C50.4381 164.744 52.0928 167.637 52.4999 170.823C54.8304 188.868 61.7571 206.009 72.6147 220.601C83.4722 235.193 97.8958 246.745 114.5 254.147H114.49ZM287.49 153.926C287.668 160.933 287.281 167.943 286.33 174.887C286.27 175.288 286.22 175.698 286.16 176.098C285.699 179.255 284.012 182.102 281.465 184.019C278.918 185.937 275.717 186.771 272.56 186.339H272.46C270.889 186.11 269.378 185.573 268.014 184.759C266.65 183.945 265.459 182.87 264.51 181.596C263.561 180.322 262.872 178.872 262.482 177.331C262.093 175.79 262.01 174.188 262.24 172.615L262.38 171.614C263.151 165.976 263.465 160.285 263.32 154.597C263.28 151.414 264.493 148.344 266.698 146.051C268.903 143.759 271.921 142.427 275.099 142.345C278.277 142.264 281.359 143.439 283.679 145.615C285.998 147.792 287.367 150.796 287.49 153.976V153.926ZM126.2 56.1168C120.436 57.9064 114.835 60.1871 109.46 62.9337C107.27 64.0577 104.788 64.4806 102.35 64.145C99.7982 63.797 97.4242 62.6425 95.5737 60.8497C93.7232 59.0569 92.4929 56.7195 92.0622 54.1779C91.6314 51.6364 92.0226 49.0235 93.1787 46.7201C94.3349 44.4166 96.1957 42.5429 98.4899 41.3719C105.081 38.0225 111.942 35.2332 119 33.0335C120.531 32.5087 122.151 32.2967 123.765 32.4098C125.379 32.523 126.954 32.9591 128.397 33.6923C129.84 34.4255 131.121 35.4409 132.165 36.6785C133.209 37.9161 133.994 39.3507 134.475 40.8974C134.955 42.4441 135.12 44.0716 134.961 45.6834C134.802 47.2953 134.322 48.8589 133.548 50.2816C132.775 51.7043 131.724 52.9573 130.459 53.9665C129.193 54.9757 127.738 55.7205 126.18 56.1569L126.2 56.1168ZM171.74 52.343C167.273 51.7201 162.77 51.3858 158.26 51.342C156.672 51.3295 155.103 51.0041 153.64 50.3844C152.178 49.7646 150.853 48.8627 149.739 47.7301C147.489 45.4426 146.24 42.3544 146.265 39.1446C146.277 37.5554 146.602 35.9841 147.222 34.5205C147.841 33.057 148.742 31.7299 149.873 30.6149C151.005 29.4999 152.344 28.619 153.816 28.0223C155.288 27.4257 156.862 27.125 158.45 27.1375C163.987 27.1983 169.515 27.6095 175 28.3687C194.357 30.9558 212.879 37.897 229.174 48.6716C245.469 59.4462 259.116 73.7745 269.09 90.5817C269.955 91.9475 270.537 93.4729 270.803 95.0677C271.069 96.6626 271.013 98.2946 270.638 99.8674C270.263 101.44 269.578 102.922 268.621 104.225C267.665 105.528 266.457 106.626 265.07 107.454C263.683 108.283 262.144 108.824 260.544 109.047C258.944 109.27 257.316 109.169 255.755 108.752C254.195 108.334 252.734 107.608 251.458 106.615C250.183 105.623 249.119 104.385 248.33 102.974C240.206 89.2978 229.097 77.6387 215.833 68.8704C202.569 60.1021 187.495 54.4519 171.74 52.343ZM179.59 179.472C178.469 180.598 177.136 181.492 175.669 182.102C174.202 182.712 172.629 183.026 171.04 183.026C169.451 183.026 167.878 182.712 166.411 182.102C164.944 181.492 163.611 180.598 162.49 179.472L148.25 165.167C146.051 162.884 144.836 159.827 144.866 156.656C144.896 153.484 146.168 150.451 148.409 148.21C150.65 145.968 153.681 144.696 156.849 144.668C160.017 144.64 163.07 145.858 165.35 148.06L179.59 162.324C180.716 163.448 181.609 164.782 182.218 166.252C182.827 167.721 183.141 169.297 183.141 170.888C183.141 172.479 182.827 174.055 182.218 175.524C181.609 176.994 180.716 178.328 179.59 179.452V179.472ZM284.25 284.228C281.979 286.491 278.904 287.761 275.7 287.761C272.495 287.761 269.421 286.491 267.15 284.228L188.15 205.148C185.951 202.864 184.736 199.808 184.766 196.636C184.796 193.465 186.068 190.432 188.309 188.19C190.55 185.948 193.581 184.676 196.749 184.648C199.917 184.62 202.97 185.838 205.25 188.04L284.25 267.121C286.512 269.391 287.783 272.467 287.783 275.674C287.783 278.881 286.512 281.957 284.25 284.228Z" fill="black"/>
</g>
<defs>
<clipPath id="clip0">
<rect width="316" height="316" fill="white"/>
</clipPath>
</defs>
</svg>
