<svg width="1778" height="317" viewBox="0 0 1778 317" fill="none" xmlns="http://www.w3.org/2000/svg">
<g clip-path="url(#clip0)">
<path d="M936.5 242.7H1023.2V302.1H858.8V22.8999H936.4V242.7H936.5Z" fill="white"/>
<path d="M1115.1 85.0999V130.6H1204.2V189.6H1115.1V239.9H1216.1V302.1H1037.5V22.8999H1216V85.0999H1115.1Z" fill="white"/>
<path d="M1292.5 286.4C1270.6 274.1 1253.2 257.1 1240.4 235.3C1227.6 213.5 1221.2 188.9 1221.2 161.4C1221.2 133.9 1227.6 109.3 1240.4 87.4999C1253.2 65.6999 1270.6 48.7999 1292.5 36.5999C1314.4 24.4999 1338.4 18.3999 1364.6 18.3999C1391 18.3999 1415.1 24.4999 1436.9 36.5999C1458.7 48.6999 1475.9 65.6999 1488.6 87.4999C1501.3 109.3 1507.6 133.9 1507.6 161.4C1507.6 188.9 1501.3 213.5 1488.6 235.3C1475.9 257.1 1458.6 274.1 1436.7 286.4C1414.8 298.7 1390.8 304.8 1364.6 304.8C1338.4 304.8 1314.4 298.7 1292.5 286.4ZM1411.5 213.4C1423 200.5 1428.7 183.2 1428.7 161.5C1428.7 139.3 1423 121.8 1411.5 109C1400 96.1999 1384.4 89.7999 1364.6 89.7999C1344.5 89.7999 1328.8 96.1999 1317.5 109C1306.1 121.8 1300.5 139.3 1300.5 161.5C1300.5 183.4 1306.2 200.8 1317.5 213.6C1328.8 226.4 1344.6 232.8 1364.6 232.8C1384.3 232.8 1400 226.3 1411.5 213.4Z" fill="white"/>
<path d="M1777.2 302.1H1699.6L1596.2 146.1V302.1H1518.6V22.8999H1596.2L1699.6 180.9V22.8999H1777.2V302.1Z" fill="white"/>
<path d="M258.6 302.1H181L77.6 146V302H0V22.8999H77.6L181 180.9V22.8999H258.6V302.1Z" fill="white"/>
<path d="M355.2 22.8999V184.9C355.2 199.9 358.7 211.6 365.7 219.7C372.7 227.9 383.3 232 397.6 232C411.9 232 422.6 227.8 429.9 219.5C437.2 211.2 440.8 199.6 440.8 184.9V22.8999H518.4V184.9C518.4 210.5 513 232.4 502.2 250.4C491.4 268.5 476.7 282.1 458 291.2C439.4 300.3 418.7 304.9 396 304.9C373.3 304.9 353 300.3 335.2 291.2C317.4 282.1 303.4 268.6 293.2 250.6C283 232.7 278 210.7 278 184.9V22.8999H355.2Z" fill="white"/>
<path d="M686.2 315.9C672.3 315.9 658.3 314 644.5 310.3C603.9 299.2 570.1 273 549.3 236.5C528.5 200 523.1 157.5 534.2 117C557 33.1999 643.7 -16.3001 727.5 6.59993C768.1 17.6999 801.9 43.8999 822.7 80.3999C843.5 116.9 848.9 159.4 837.8 199.9C826.7 240.5 800.5 274.3 764 295.1C739.9 308.9 713.3 315.9 686.2 315.9ZM686 81.5999C652.2 81.5999 621.2 104.1 611.9 138.2C606.5 158 609.1 178.7 619.3 196.5C629.5 214.3 646 227.1 665.8 232.5C685.6 237.9 706.3 235.3 724.1 225.1C741.9 214.9 754.7 198.4 760.1 178.6C765.5 158.8 762.9 138.1 752.7 120.3C742.5 102.5 726 89.6999 706.2 84.2999C699.5 82.4999 692.7 81.5999 686 81.5999Z" fill="url(#paint0_linear)"/>
<path d="M671.3 287.4C664.8 286.5 660.2 280.6 660.9 274.1C661.6 267.5 667.6 262.7 674.3 263.4C680.3 264.1 686.4 264.2 692.4 263.9C699.1 263.5 704.8 268.6 705.2 275.3C705.6 282 700.5 287.7 693.8 288.1C686.4 288.5 679 288.3 671.6 287.5C671.5 287.4 671.4 287.4 671.3 287.4Z" fill="url(#paint1_linear)"/>
<path d="M636.4 277.9C635.3 277.7 634.2 277.4 633.1 277C606 264.9 583.6 243.7 570.1 217.2C563.3 203.8 558.9 189.5 557 174.7C556.2 168.1 560.8 162 567.5 161.2C574.1 160.4 580.2 165 581 171.7C582.5 183.7 586.1 195.4 591.7 206.3C602.7 227.9 620.9 245.2 643 255C649.1 257.7 651.9 264.9 649.1 271C646.9 275.9 641.6 278.6 636.4 277.9Z" fill="url(#paint2_linear)"/>
<path d="M575.1 125.9C574.1 125.8 573.1 125.5 572.2 125.1C566 122.6 563 115.5 565.5 109.4C568.3 102.5 571.6 95.8999 575.5 89.5999C579 83.8999 586.5 82.1999 592.1 85.6999C597.8 89.1999 599.5 96.6999 596 102.3C592.8 107.4 590.1 112.8 587.8 118.4C585.8 123.7 580.4 126.6 575.1 125.9Z" fill="url(#paint3_linear)"/>
<path d="M804.2 316.7C793.9 316.7 783.6 312.8 775.7 304.9L656.8 186C641.1 170.3 641.1 144.7 656.8 129C672.5 113.3 698.1 113.3 713.8 129L832.7 247.9C848.4 263.6 848.4 289.2 832.7 304.9C824.8 312.7 814.5 316.7 804.2 316.7Z" fill="url(#paint4_linear)"/>
<path opacity="0.2" d="M765.3 294.4L704 233.1C699.2 234.3 694.3 235 689.3 235.2L754.3 300.2C757.6 298.6 760.8 296.9 764 295.1C764.4 294.9 764.8 294.7 765.3 294.4Z" fill="#13091C"/>
<path d="M804.2 288.5C801.1 288.5 798 287.3 795.7 285L716.7 206C712 201.3 712 193.6 716.7 188.9C721.4 184.2 729.1 184.2 733.8 188.9L812.8 267.9C817.5 272.6 817.5 280.3 812.8 285C810.4 287.3 807.3 288.5 804.2 288.5ZM699.5 183.8C696.4 183.8 693.3 182.6 691 180.3L676.7 166C672 161.3 672 153.6 676.7 148.9C681.4 144.2 689.1 144.2 693.8 148.9L708 163.1C712.7 167.8 712.7 175.5 708 180.2C705.7 182.6 702.6 183.8 699.5 183.8Z" fill="url(#paint5_linear)"/>
<path d="M801.1 187.2H801C794.4 186.2 789.8 180.1 790.8 173.5L790.9 172.5C791.7 166.9 792 161.1 791.8 155.5C791.6 148.8 796.9 143.3 803.6 143.1C810.3 142.9 815.8 148.2 816 154.9C816.2 161.9 815.8 168.9 814.8 175.8C814.7 176.2 814.7 176.6 814.6 177C813.7 183.5 807.6 188 801.1 187.2Z" fill="url(#paint6_linear)"/>
<path d="M785.6 109.7C782.1 109.2 778.8 107.2 776.8 103.9C760.3 76.1999 732.3 57.6999 700.2 53.2999C695.7 52.6999 691.2 52.3999 686.7 52.2999C680 52.1999 674.7 46.7999 674.7 40.0999C674.7 33.3999 680.2 28.0999 686.9 28.0999C692.4 28.0999 698 28.4999 703.5 29.2999C743 34.6999 777.3 57.2999 797.6 91.3999C801 97.0999 799.1 104.6 793.4 108C791 109.5 788.2 110 785.6 109.7Z" fill="url(#paint7_linear)"/>
<path d="M630.9 65.0999C627.1 64.5999 623.6 62.2999 621.8 58.5999C618.8 52.6999 621.1 45.3999 627.1 42.2999C633.7 38.8999 640.6 36.0999 647.6 33.8999C654 31.8999 660.8 35.4999 662.7 41.8999C664.7 48.2999 661.1 55.0999 654.7 56.9999C649 58.7999 643.3 61.0999 638 63.7999C635.7 64.9999 633.2 65.3999 630.9 65.0999Z" fill="url(#paint8_linear)"/>
</g>
<defs>
<linearGradient id="paint0_linear" x1="528.5" y1="158.46" x2="843.471" y2="158.46" gradientUnits="userSpaceOnUse">
<stop stop-color="#E9D11A"/>
<stop offset="1" stop-color="#F07F05"/>
</linearGradient>
<linearGradient id="paint1_linear" x1="667.562" y1="291.102" x2="696.379" y2="262.285" gradientUnits="userSpaceOnUse">
<stop stop-color="#F07F05"/>
<stop offset="1" stop-color="#E9D11A"/>
</linearGradient>
<linearGradient id="paint2_linear" x1="585.802" y1="237.299" x2="620.931" y2="202.17" gradientUnits="userSpaceOnUse">
<stop stop-color="#F07F05"/>
<stop offset="1" stop-color="#E9D11A"/>
</linearGradient>
<linearGradient id="paint3_linear" x1="566.101" y1="120.077" x2="598.74" y2="87.4378" gradientUnits="userSpaceOnUse">
<stop stop-color="#F07F05"/>
<stop offset="1" stop-color="#E9D11A"/>
</linearGradient>
<linearGradient id="paint4_linear" x1="645.001" y1="216.934" x2="844.5" y2="216.934" gradientUnits="userSpaceOnUse">
<stop stop-color="#E9D11A"/>
<stop offset="1" stop-color="#F07F05"/>
</linearGradient>
<linearGradient id="paint5_linear" x1="735.058" y1="226.627" x2="754.134" y2="207.55" gradientUnits="userSpaceOnUse">
<stop stop-color="#F07F05"/>
<stop offset="1" stop-color="#E9D11A"/>
</linearGradient>
<linearGradient id="paint6_linear" x1="790.277" y1="178.167" x2="817.173" y2="151.271" gradientUnits="userSpaceOnUse">
<stop stop-color="#F07F05"/>
<stop offset="1" stop-color="#E9D11A"/>
</linearGradient>
<linearGradient id="paint7_linear" x1="741.34" y1="64.66" x2="756.665" y2="49.335" gradientUnits="userSpaceOnUse">
<stop stop-color="#F07F05"/>
<stop offset="1" stop-color="#E9D11A"/>
</linearGradient>
<linearGradient id="paint8_linear" x1="623.481" y1="67.6211" x2="663.534" y2="27.5684" gradientUnits="userSpaceOnUse">
<stop stop-color="#F07F05"/>
<stop offset="1" stop-color="#E9D11A"/>
</linearGradient>
<clipPath id="clip0">
<rect width="1777.16" height="315.68" fill="white" transform="translate(0 0.679932)"/>
</clipPath>
</defs>
</svg>
