<svg width="1778" height="316" viewBox="0 0 1778 316" fill="none" xmlns="http://www.w3.org/2000/svg">
<g clip-path="url(#clip0)">
<path d="M936.47 241.66H1023.19V301.06H858.85V21.8799H936.47V241.66Z" fill="black"/>
<path d="M1115.06 84.0499V129.59H1204.16V188.59H1115.06V238.88H1216.06V301.05H1037.46V21.8799H1216V84.0499H1115.06Z" fill="black"/>
<path d="M1292.46 285.42C1270.81 273.399 1252.82 255.746 1240.39 234.33C1227.58 212.55 1221.17 187.933 1221.18 160.48C1221.19 133.027 1227.59 108.41 1240.39 86.63C1252.79 65.2433 1270.79 47.6475 1292.46 35.74C1314.37 23.6 1338.39 17.5267 1364.54 17.52C1390.93 17.52 1415.02 23.5934 1436.81 35.74C1458.36 47.6631 1476.23 65.2638 1488.48 86.63C1501.15 108.41 1507.48 133.027 1507.48 160.48C1507.48 187.933 1501.15 212.55 1488.48 234.33C1476.16 255.763 1458.23 273.428 1436.61 285.42C1414.69 297.687 1390.67 303.823 1364.54 303.83C1338.41 303.837 1314.39 297.7 1292.46 285.42ZM1411.46 212.36C1422.95 199.42 1428.7 182.127 1428.69 160.48C1428.69 138.3 1422.95 120.81 1411.46 108.01C1399.97 95.21 1384.33 88.8067 1364.54 88.8C1344.47 88.8 1328.76 95.2034 1317.41 108.01C1306.06 120.817 1300.4 138.307 1300.41 160.48C1300.41 182.4 1306.08 199.757 1317.41 212.55C1328.74 225.343 1344.45 231.747 1364.54 231.76C1384.34 231.76 1399.98 225.293 1411.46 212.36Z" fill="black"/>
<path d="M1777.16 301.06H1699.55L1596.19 145V301H1518.58V21.8799H1596.19L1699.55 179.88V21.8799H1777.16V301.06Z" fill="black"/>
<path d="M258.59 301.06H181L77.62 145V301H0V21.8799H77.62L181 179.88V21.8799H258.62L258.59 301.06Z" fill="black"/>
<path d="M355.21 21.8801V183.88C355.21 198.927 358.71 210.543 365.71 218.73C372.71 226.917 383.333 231.007 397.58 231C411.84 231 422.6 226.84 429.86 218.52C437.12 210.2 440.75 198.65 440.75 183.87V21.8701H518.36V183.87C518.36 209.477 512.95 231.323 502.13 249.41C491.768 267.057 476.412 281.24 458 290.17C439.387 299.277 418.72 303.83 396 303.83C373.28 303.83 353.017 299.277 335.21 290.17C317.462 281.15 302.83 267.01 293.21 249.58C283.07 231.627 278 209.713 278 183.84V21.8401L355.21 21.8801Z" fill="black"/>
<path d="M832.7 246.89L822.21 236.41C829.011 224.634 834.265 212.03 837.84 198.91C843.287 178.967 844.753 158.147 842.153 137.638C839.554 117.129 832.94 97.333 822.689 79.3803C812.438 61.4276 798.751 45.67 782.41 33.0072C766.069 20.3445 747.393 11.0247 727.45 5.57997C643.73 -17.29 557 32.22 534.13 116C523.143 156.269 528.599 199.253 549.298 235.5C569.997 271.747 604.245 298.289 644.51 309.29C658.108 313.014 672.142 314.907 686.24 314.92C709.825 314.907 733.099 309.542 754.31 299.23L689.31 234.23C673.228 234.934 657.331 230.57 643.862 221.754C630.393 212.937 620.033 200.114 614.243 185.094C608.453 170.074 607.526 153.614 611.593 138.039C615.659 122.463 624.515 108.558 636.908 98.2856C649.302 88.0129 664.609 81.8915 680.668 80.7852C696.728 79.6788 712.729 83.6435 726.415 92.1196C740.1 100.596 750.778 113.155 756.942 128.026C763.107 142.897 764.445 159.328 760.77 175L713.77 128C710.027 124.257 705.584 121.288 700.694 119.263C695.804 117.237 690.563 116.195 685.27 116.195C679.977 116.195 674.736 117.237 669.846 119.263C664.956 121.288 660.513 124.257 656.77 128C653.027 131.743 650.058 136.186 648.033 141.076C646.007 145.966 644.965 151.207 644.965 156.5C644.965 161.793 646.007 167.034 648.033 171.924C650.058 176.814 653.027 181.257 656.77 185L775.7 303.88C783.259 311.439 793.51 315.685 804.2 315.685C814.89 315.685 825.141 311.439 832.7 303.88C840.259 296.321 844.505 286.07 844.505 275.38C844.505 264.69 840.259 254.439 832.7 246.88V246.89ZM565.49 108.37C568.257 101.505 571.603 94.8882 575.49 88.59C576.318 87.223 577.409 86.0338 578.699 85.0911C579.99 84.1484 581.455 83.4709 583.009 83.0979C584.563 82.7248 586.175 82.6636 587.753 82.9177C589.331 83.1718 590.843 83.7363 592.201 84.5784C593.559 85.4205 594.737 86.5235 595.667 87.8237C596.596 89.1239 597.258 90.5955 597.615 92.1533C597.972 93.7111 598.017 95.3242 597.746 96.8994C597.476 98.4745 596.896 99.9804 596.04 101.33C592.865 106.459 590.132 111.848 587.87 117.44C586.86 119.93 585.049 122.012 582.724 123.359C580.4 124.707 577.693 125.241 575.03 124.88C574.036 124.739 573.063 124.48 572.13 124.11C569.164 122.901 566.799 120.565 565.554 117.614C564.309 114.662 564.286 111.338 565.49 108.37ZM660.92 273.05C661.097 271.473 661.582 269.945 662.349 268.556C663.117 267.166 664.15 265.941 665.391 264.951C666.632 263.961 668.055 263.225 669.58 262.786C671.106 262.346 672.703 262.212 674.28 262.39C680.272 263.069 686.311 263.23 692.33 262.87C693.937 262.735 695.554 262.923 697.087 263.422C698.62 263.922 700.038 264.723 701.256 265.778C702.475 266.834 703.471 268.122 704.184 269.568C704.897 271.014 705.314 272.588 705.41 274.197C705.506 275.807 705.28 277.419 704.743 278.94C704.207 280.46 703.372 281.858 702.287 283.051C701.203 284.244 699.89 285.208 698.428 285.886C696.965 286.564 695.381 286.943 693.77 287C686.37 287.438 678.946 287.241 671.58 286.41H671.29C668.159 285.979 665.321 284.339 663.383 281.843C661.445 279.346 660.561 276.19 660.92 273.05ZM643 253.89C645.622 255.097 647.726 257.202 648.932 259.824C650.138 262.447 650.367 265.414 649.578 268.19C648.788 270.966 647.032 273.369 644.627 274.965C642.221 276.56 639.325 277.243 636.46 276.89C635.33 276.737 634.228 276.421 633.19 275.95C612.79 266.874 595.067 252.703 581.724 234.8C568.381 216.897 559.867 195.863 557 173.72C556.593 170.537 557.467 167.323 559.429 164.785C561.392 162.247 564.282 160.592 567.465 160.185C570.648 159.778 573.862 160.652 576.4 162.614C578.938 164.577 580.593 167.467 581 170.65C583.33 188.676 590.257 205.801 601.115 220.378C611.972 234.955 626.396 246.495 643 253.89ZM816 153.77C816.179 160.77 815.791 167.773 814.84 174.71C814.78 175.11 814.73 175.52 814.67 175.92C814.209 179.073 812.522 181.917 809.975 183.833C807.428 185.749 804.228 186.582 801.07 186.15H800.96C799.389 185.921 797.878 185.385 796.515 184.572C795.151 183.759 793.961 182.685 793.013 181.411C792.065 180.138 791.377 178.69 790.989 177.151C790.6 175.612 790.519 174.011 790.75 172.44L790.89 171.44C791.661 165.808 791.975 160.123 791.83 154.44C791.79 151.261 793.003 148.194 795.208 145.904C797.413 143.613 800.431 142.283 803.609 142.201C806.787 142.12 809.869 143.293 812.189 145.468C814.508 147.643 815.877 150.643 816 153.82V153.77ZM654.7 56.06C648.949 57.8499 643.362 60.1282 638 62.87C635.144 64.3287 631.825 64.5929 628.774 63.6046C625.722 62.6163 623.189 60.4563 621.73 57.6C620.271 54.7436 620.007 51.4247 620.995 48.3735C621.984 45.3223 624.144 42.7887 627 41.33C633.594 37.9816 640.458 35.1951 647.52 33C649.051 32.4758 650.671 32.2639 652.285 32.377C653.899 32.49 655.474 32.9257 656.917 33.6581C658.36 34.3906 659.641 35.405 660.685 36.6413C661.729 37.8776 662.514 39.3108 662.995 40.8559C663.475 42.4011 663.64 44.0269 663.481 45.6371C663.322 47.2474 662.842 48.8093 662.068 50.2306C661.295 51.6519 660.245 52.9037 658.979 53.9118C657.713 54.92 656.258 55.664 654.7 56.1V56.06ZM700.24 52.29C695.773 51.6677 691.27 51.3337 686.76 51.29C685.124 51.3536 683.492 51.0843 681.963 50.4982C680.434 49.9122 679.04 49.0218 677.866 47.8808C676.691 46.7399 675.761 45.3724 675.131 43.8611C674.501 42.3498 674.184 40.7262 674.201 39.089C674.217 37.4517 674.566 35.8348 675.226 34.3363C675.885 32.8378 676.843 31.489 678.04 30.3717C679.237 29.2543 680.648 28.3917 682.188 27.8362C683.728 27.2807 685.365 27.0438 687 27.14C692.543 27.1899 698.078 27.5907 703.57 28.34C722.928 30.9244 741.449 37.8586 757.744 48.6223C774.039 59.3859 787.686 73.6997 797.66 90.49C798.525 91.8543 799.107 93.3782 799.373 94.9714C799.639 96.5647 799.583 98.195 799.208 99.7663C798.833 101.338 798.148 102.818 797.191 104.119C796.235 105.421 795.028 106.518 793.64 107.346C792.253 108.173 790.714 108.714 789.114 108.936C787.514 109.159 785.886 109.059 784.325 108.641C782.765 108.224 781.304 107.499 780.028 106.507C778.753 105.516 777.689 104.279 776.9 102.87C768.769 89.1989 757.649 77.5463 744.372 68.7864C731.095 60.0265 716.007 54.3867 700.24 52.29ZM708.09 179.29C706.969 180.415 705.636 181.308 704.169 181.918C702.702 182.527 701.129 182.84 699.54 182.84C697.951 182.84 696.378 182.527 694.911 181.918C693.444 181.308 692.111 180.415 690.99 179.29L676.75 165C675.594 163.885 674.672 162.55 674.037 161.075C673.403 159.599 673.069 158.012 673.055 156.406C673.04 154.8 673.347 153.207 673.955 151.72C674.563 150.234 675.462 148.883 676.598 147.748C677.734 146.612 679.085 145.715 680.572 145.107C682.059 144.5 683.652 144.195 685.258 144.21C686.864 144.225 688.451 144.56 689.926 145.195C691.402 145.83 692.735 146.753 693.85 147.91L708.09 162.16C709.216 163.282 710.109 164.616 710.718 166.084C711.328 167.552 711.641 169.125 711.641 170.715C711.641 172.304 711.328 173.878 710.718 175.346C710.109 176.814 709.216 178.148 708.09 179.27V179.29ZM812.75 283.94C810.479 286.201 807.405 287.47 804.2 287.47C800.995 287.47 797.921 286.201 795.65 283.94L716.65 204.94C714.452 202.659 713.237 199.605 713.266 196.437C713.296 193.269 714.568 190.239 716.809 187.999C719.05 185.76 722.081 184.489 725.249 184.461C728.417 184.433 731.47 185.65 733.75 187.85L812.75 266.85C815.012 269.118 816.283 272.191 816.283 275.395C816.283 278.599 815.012 281.672 812.75 283.94Z" fill="black"/>
</g>
<defs>
<clipPath id="clip0">
<rect width="1777.16" height="315.68" fill="white"/>
</clipPath>
</defs>
</svg>
