<svg width="1832" height="316" viewBox="0 0 1832 316" fill="none" xmlns="http://www.w3.org/2000/svg">
<g clip-path="url(#clip0)">
<path d="M1237.51 21.8799V83.6499H1163.07V301.06H1085.45V83.6499H1011.79V21.8799H1237.51Z" fill="black"/>
<path d="M1336.11 21.8799V301.06H1258.5V21.8799H1336.11Z" fill="black"/>
<path d="M1644.2 21.8799L1548 301.06H1448.61L1352 21.8799H1435.16L1498.52 223.44L1561.52 21.8799H1644.2Z" fill="black"/>
<path d="M1730.13 84.0499V129.59H1819.23V188.59H1730.13V238.89H1831.13V301.06H1652.53V21.8799H1831.13V84.0499H1730.13Z" fill="black"/>
<path d="M141.37 301.06L85.93 198.06H77.62V301.06H0V21.8799H122.36C144.8 21.8799 163.8 25.7732 179.36 33.5599C194.92 41.3466 206.667 52.0399 214.6 65.6399C222.52 79.2399 226.48 94.4865 226.48 111.38C226.48 130.38 221.267 147.077 210.84 161.47C200.413 175.863 185.167 186.093 165.1 192.16L228.1 301.06H141.37ZM77.62 145H116C126.547 145 134.467 142.493 139.76 137.48C145.053 132.467 147.693 125.207 147.68 115.7C147.68 106.733 144.973 99.6732 139.56 94.5199C134.147 89.3665 126.293 86.7999 116 86.8199H77.62V145Z" fill="black"/>
<path d="M323.53 84.0499V129.59H412.63V188.59H323.53V238.89H424.53V301.06H245.91V21.8799H424.51V84.0499H323.53Z" fill="black"/>
<path d="M631.61 255.52H532.61L517.61 301.06H436L537.76 21.8799H627.26L728.63 301.06H646.63L631.61 255.52ZM612.21 196.12L582.11 105.83L552.41 196.12H612.21Z" fill="black"/>
<path d="M1005.67 246.89L995.19 236.41C1001.99 224.634 1007.24 212.03 1010.81 198.91C1016.26 178.968 1017.73 158.148 1015.13 137.638C1012.53 117.129 1005.92 97.3322 995.67 79.379C985.419 61.4258 971.733 45.6678 955.391 33.0052C939.05 20.3426 920.374 11.0234 900.43 5.57997C816.7 -17.29 730 32.22 707.11 116C696.125 156.267 701.581 199.249 722.278 235.495C742.975 271.741 777.218 298.284 817.48 309.29C831.078 313.014 845.112 314.907 859.21 314.92C882.798 314.907 906.076 309.542 927.29 299.23L862.29 234.23C846.207 234.936 830.309 230.574 816.839 221.759C803.369 212.944 793.007 200.122 787.215 185.102C781.424 170.081 780.495 153.622 784.561 138.046C788.626 122.469 797.481 108.563 809.874 98.2894C822.268 88.0156 837.574 81.8931 853.634 80.7859C869.694 79.6787 885.696 83.6427 899.382 92.1185C913.068 100.594 923.747 113.154 929.912 128.025C936.076 142.896 937.415 159.327 933.74 175L886.74 128C882.997 124.257 878.554 121.288 873.664 119.263C868.774 117.237 863.533 116.195 858.24 116.195C852.947 116.195 847.706 117.237 842.816 119.263C837.926 121.288 833.483 124.257 829.74 128C825.997 131.743 823.028 136.186 821.003 141.076C818.977 145.966 817.935 151.207 817.935 156.5C817.935 161.793 818.977 167.034 821.003 171.924C823.028 176.814 825.997 181.257 829.74 185L948.68 303.88C956.239 311.439 966.49 315.685 977.18 315.685C987.87 315.685 998.121 311.439 1005.68 303.88C1013.24 296.321 1017.49 286.07 1017.49 275.38C1017.49 264.69 1013.24 254.439 1005.68 246.88L1005.67 246.89ZM738.46 108.37C741.227 101.505 744.573 94.8884 748.46 88.59C749.288 87.223 750.379 86.0338 751.669 85.0911C752.96 84.1484 754.425 83.4709 755.979 83.0979C757.533 82.7248 759.145 82.6636 760.723 82.9177C762.301 83.1718 763.813 83.7363 765.171 84.5784C766.529 85.4205 767.707 86.5235 768.637 87.8237C769.566 89.1239 770.228 90.5955 770.585 92.1533C770.942 93.7111 770.987 95.3242 770.716 96.8994C770.446 98.4745 769.866 99.9804 769.01 101.33C765.827 106.454 763.094 111.844 760.84 117.44C759.828 119.929 758.018 122.01 755.693 123.357C753.369 124.704 750.662 125.24 748 124.88C747.003 124.739 746.026 124.48 745.09 124.11C742.126 122.899 739.763 120.562 738.52 117.611C737.277 114.66 737.256 111.337 738.46 108.37ZM833.9 273.05C834.077 271.473 834.562 269.945 835.329 268.556C836.097 267.166 837.13 265.941 838.371 264.951C839.612 263.961 841.035 263.225 842.56 262.786C844.086 262.346 845.683 262.212 847.26 262.39C853.235 263.067 859.257 263.228 865.26 262.87C866.862 262.74 868.475 262.931 870.002 263.432C871.53 263.932 872.942 264.733 874.157 265.786C875.372 266.839 876.364 268.124 877.076 269.565C877.788 271.007 878.206 272.576 878.304 274.18C878.402 275.785 878.18 277.393 877.649 278.911C877.119 280.428 876.291 281.825 875.214 283.018C874.137 284.212 872.833 285.179 871.378 285.863C869.923 286.546 868.346 286.933 866.74 287C859.34 287.438 851.916 287.241 844.55 286.41H844.26C841.129 285.981 838.29 284.342 836.353 281.844C834.417 279.347 833.536 276.189 833.9 273.05ZM816 253.89C818.622 255.097 820.726 257.202 821.932 259.824C823.138 262.447 823.367 265.414 822.578 268.19C821.788 270.966 820.032 273.369 817.627 274.965C815.221 276.56 812.325 277.243 809.46 276.89C808.331 276.735 807.229 276.418 806.19 275.95C785.79 266.874 768.067 252.703 754.724 234.8C741.381 216.897 732.867 195.863 730 173.72C729.593 170.537 730.467 167.323 732.429 164.785C734.392 162.247 737.282 160.592 740.465 160.185C743.648 159.778 746.862 160.652 749.4 162.614C751.938 164.577 753.593 167.467 754 170.65C756.33 188.676 763.257 205.801 774.115 220.378C784.972 234.955 799.396 246.495 816 253.89ZM989 153.77C989.179 160.77 988.791 167.773 987.84 174.71C987.78 175.11 987.73 175.52 987.67 175.92C987.207 179.072 985.518 181.915 982.972 183.83C980.426 185.745 977.227 186.579 974.07 186.15H973.96C970.788 185.685 967.93 183.98 966.013 181.41C964.097 178.839 963.279 175.613 963.74 172.44L963.88 171.44C964.651 165.808 964.965 160.123 964.82 154.44C964.738 151.234 965.933 148.126 968.142 145.8C970.351 143.475 973.393 142.122 976.6 142.04C979.806 141.958 982.914 143.153 985.24 145.362C987.565 147.571 988.918 150.614 989 153.82V153.77ZM827.68 56.06C821.913 57.8477 816.309 60.1261 810.93 62.87C809.516 63.5915 807.974 64.027 806.391 64.1516C804.809 64.2762 803.217 64.0874 801.708 63.596C800.198 63.1046 798.8 62.3203 797.595 61.288C796.389 60.2557 795.398 58.9956 794.68 57.58C793.961 56.1639 793.528 54.62 793.406 53.0365C793.285 51.4531 793.476 49.8611 793.97 48.3518C794.464 46.8425 795.251 45.4454 796.286 44.2405C797.321 43.0356 798.583 42.0466 800 41.33C806.587 37.9831 813.445 35.1966 820.5 33C822.031 32.4758 823.651 32.2639 825.265 32.377C826.879 32.49 828.455 32.9257 829.897 33.6581C831.34 34.3906 832.621 35.405 833.665 36.6413C834.709 37.8776 835.494 39.3108 835.975 40.8559C836.455 42.4011 836.62 44.0269 836.461 45.6371C836.302 47.2474 835.822 48.8093 835.048 50.2306C834.275 51.6519 833.224 52.9037 831.959 53.9118C830.693 54.92 829.238 55.664 827.68 56.1V56.06ZM873.21 52.29C868.743 51.6675 864.24 51.3334 859.73 51.29C856.523 51.2648 853.458 49.9668 851.209 47.6817C848.959 45.3966 847.71 42.3114 847.735 39.105C847.76 35.8985 849.058 32.8334 851.343 30.5839C853.628 28.3344 856.714 27.0848 859.92 27.11C865.463 27.1599 870.997 27.5607 876.49 28.31C895.848 30.8937 914.369 37.8276 930.665 48.5913C946.96 59.3551 960.606 73.6693 970.58 90.46C971.445 91.8243 972.027 93.3482 972.293 94.9414C972.559 96.5347 972.503 98.165 972.128 99.7363C971.754 101.308 971.068 102.788 970.111 104.089C969.155 105.391 967.948 106.488 966.56 107.316C965.173 108.143 963.634 108.684 962.034 108.906C960.434 109.129 958.806 109.029 957.245 108.611C955.685 108.194 954.224 107.469 952.948 106.477C951.673 105.486 950.609 104.249 949.82 102.84C941.691 89.1805 930.577 77.5376 917.309 68.7833C904.042 60.0291 888.966 54.3905 873.21 52.29ZM881.07 179.29C879.948 180.416 878.614 181.309 877.146 181.918C875.678 182.528 874.104 182.841 872.515 182.841C870.926 182.841 869.352 182.528 867.884 181.918C866.416 181.309 865.082 180.416 863.96 179.29L849.72 165C848.564 163.885 847.642 162.55 847.007 161.075C846.373 159.599 846.039 158.012 846.025 156.406C846.01 154.8 846.317 153.207 846.925 151.72C847.533 150.234 848.432 148.883 849.568 147.748C850.704 146.612 852.055 145.715 853.542 145.107C855.029 144.5 856.622 144.195 858.228 144.21C859.834 144.225 861.421 144.56 862.896 145.195C864.372 145.83 865.705 146.753 866.82 147.91L881.07 162.16C883.339 164.429 884.613 167.506 884.613 170.715C884.613 173.924 883.339 177.001 881.07 179.27V179.29ZM985.72 283.94C983.45 286.2 980.378 287.469 977.175 287.469C973.972 287.469 970.9 286.2 968.63 283.94L889.63 204.94C887.432 202.659 886.217 199.605 886.246 196.437C886.276 193.269 887.548 190.239 889.789 187.999C892.03 185.76 895.061 184.489 898.229 184.461C901.397 184.433 904.45 185.65 906.73 187.85L985.73 266.85C987.991 269.12 989.26 272.193 989.258 275.397C989.256 278.601 987.984 281.673 985.72 283.94Z" fill="black"/>
</g>
<defs>
<clipPath id="clip0">
<rect width="1831.11" height="315.68" fill="white"/>
</clipPath>
</defs>
</svg>
