<svg width="1778" height="318" viewBox="0 0 1778 318" fill="none" xmlns="http://www.w3.org/2000/svg">
<g clip-path="url(#clip0)">
<path d="M936.47 242.84H1023.19V302.24H858.85V23.0598H936.47V242.84Z" fill="white"/>
<path d="M1115.06 85.2298V130.77H1204.16V189.77H1115.06V240.07H1216.06V302.24H1037.45V23.0598H1216V85.2298H1115.06Z" fill="white"/>
<path d="M1292.46 286.6C1270.81 274.579 1252.82 256.925 1240.39 235.51C1227.58 213.73 1221.17 189.113 1221.18 161.66C1221.19 134.207 1227.59 109.587 1240.39 87.7999C1252.79 66.4138 1270.79 48.8206 1292.46 36.9199C1314.37 24.7599 1338.39 18.6799 1364.54 18.6799C1390.93 18.6799 1415.02 24.7533 1436.81 36.8999C1458.36 48.8166 1476.23 66.4146 1488.48 87.7799C1501.15 109.56 1507.48 134.18 1507.48 161.64C1507.48 189.1 1501.15 213.717 1488.48 235.49C1476.16 256.923 1458.23 274.588 1436.61 286.58C1414.69 298.847 1390.67 304.983 1364.54 304.99C1338.41 304.997 1314.39 298.867 1292.46 286.6ZM1411.46 213.53C1422.95 200.597 1428.7 183.307 1428.69 161.66C1428.69 139.48 1422.95 121.99 1411.46 109.19C1399.97 96.3899 1384.33 89.9866 1364.54 89.9799C1344.47 89.9799 1328.76 96.3833 1317.41 109.19C1306.06 121.997 1300.4 139.487 1300.41 161.66C1300.41 183.567 1306.08 200.923 1317.41 213.73C1328.74 226.537 1344.45 232.94 1364.54 232.94C1384.34 232.94 1399.98 226.47 1411.46 213.53Z" fill="white"/>
<path d="M1777.16 302.24H1699.55L1596.19 146.24V302.24H1518.58V23.0598H1596.19L1699.55 181.06V23.0598H1777.16V302.24Z" fill="white"/>
<path d="M258.59 302.24H181L77.65 146.24V302.24H0V23.0598H77.62L181 181.06V23.0598H258.62L258.59 302.24Z" fill="white"/>
<path d="M355.21 23.0598V185.06C355.21 200.106 358.71 211.723 365.71 219.91C372.71 228.096 383.333 232.19 397.58 232.19C411.84 232.19 422.6 228.03 429.86 219.71C437.12 211.39 440.75 199.84 440.75 185.06V23.0598H518.36V185.06C518.36 210.666 512.95 232.513 502.13 250.6C491.766 268.243 476.411 282.422 458 291.35C439.387 300.456 418.72 305.01 396 305.01C373.28 305.01 353.017 300.456 335.21 291.35C317.462 282.33 302.83 268.19 293.21 250.76C283.07 232.806 278 210.893 278 185.02V23.0198L355.21 23.0598Z" fill="white"/>
<path d="M832.7 248.07L822.21 237.59C829.011 225.814 834.265 213.21 837.84 200.09C843.287 180.147 844.753 159.327 842.153 138.818C839.554 118.309 832.94 98.5128 822.689 80.5602C812.438 62.6075 798.751 46.8498 782.41 34.1871C766.069 21.5243 747.393 12.2045 727.45 6.75984C643.73 -16.1102 557 33.3998 534.13 117.14C523.131 157.414 528.581 200.408 549.281 236.665C569.981 272.921 604.236 299.469 644.51 310.47C658.108 314.194 672.142 316.087 686.24 316.1C709.825 316.087 733.099 310.722 754.31 300.41L689.31 235.41C673.226 236.112 657.328 231.745 643.859 222.927C630.39 214.108 620.03 201.283 614.241 186.26C608.452 171.238 607.526 154.777 611.594 139.2C615.663 123.624 624.519 109.718 636.915 99.4446C649.311 89.1716 664.619 83.0503 680.68 81.9444C696.741 80.8386 712.744 84.804 726.431 93.2811C740.118 101.758 750.797 114.319 756.961 129.191C763.126 144.063 764.465 160.496 760.79 176.17L713.79 129.17C706.231 121.611 695.98 117.365 685.29 117.365C674.6 117.365 664.349 121.611 656.79 129.17C649.231 136.729 644.985 146.98 644.985 157.67C644.985 168.359 649.231 178.611 656.79 186.17L775.7 305.06C779.443 308.803 783.886 311.771 788.776 313.797C793.666 315.822 798.907 316.865 804.2 316.865C809.493 316.865 814.734 315.822 819.624 313.797C824.514 311.771 828.957 308.803 832.7 305.06C836.443 301.317 839.412 296.874 841.437 291.984C843.463 287.094 844.505 281.853 844.505 276.56C844.505 271.267 843.463 266.026 841.437 261.136C839.412 256.246 836.443 251.803 832.7 248.06V248.07ZM565.49 109.55C568.257 102.685 571.603 96.0681 575.49 89.7698C576.318 88.4029 577.409 87.2137 578.699 86.271C579.99 85.3283 581.455 84.6508 583.009 84.2778C584.563 83.9047 586.175 83.8435 587.753 84.0976C589.331 84.3517 590.843 84.9161 592.201 85.7582C593.56 86.6003 594.737 87.7034 595.667 89.0036C596.596 90.3038 597.258 91.7754 597.615 93.3332C597.972 94.891 598.017 96.5041 597.747 98.0792C597.476 99.6544 596.896 101.16 596.04 102.51C592.867 107.636 590.134 113.022 587.87 118.61C586.861 121.101 585.052 123.186 582.727 124.535C580.402 125.884 577.694 126.421 575.03 126.06C574.035 125.92 573.061 125.658 572.13 125.28C570.661 124.683 569.324 123.803 568.195 122.69C567.066 121.576 566.168 120.251 565.551 118.791C564.934 117.33 564.612 115.762 564.601 114.176C564.591 112.591 564.893 111.019 565.49 109.55ZM660.92 274.23C661.097 272.652 661.582 271.125 662.349 269.736C663.117 268.346 664.15 267.121 665.391 266.131C666.632 265.141 668.055 264.405 669.581 263.966C671.106 263.526 672.703 263.392 674.28 263.57C680.272 264.249 686.311 264.41 692.33 264.05C693.937 263.915 695.554 264.103 697.087 264.602C698.62 265.102 700.038 265.903 701.256 266.958C702.475 268.013 703.471 269.302 704.184 270.748C704.897 272.194 705.314 273.768 705.41 275.377C705.507 276.987 705.28 278.599 704.743 280.119C704.207 281.64 703.372 283.038 702.287 284.231C701.203 285.424 699.89 286.388 698.428 287.066C696.965 287.744 695.381 288.123 693.77 288.18C686.37 288.618 678.946 288.421 671.58 287.59H671.29C668.159 287.158 665.321 285.519 663.383 283.022C661.446 280.526 660.561 277.37 660.92 274.23ZM643 255.07C645.622 256.277 647.726 258.382 648.932 261.004C650.138 263.627 650.367 266.594 649.578 269.37C648.788 272.146 647.032 274.549 644.627 276.144C642.221 277.74 639.325 278.423 636.46 278.07C635.33 277.917 634.229 277.601 633.19 277.13C612.79 268.053 595.067 253.883 581.724 235.98C568.381 218.077 559.867 197.043 557 174.9C556.592 171.717 557.464 168.503 559.426 165.964C561.387 163.424 564.277 161.768 567.46 161.36C569.036 161.158 570.636 161.268 572.169 161.684C573.703 162.1 575.139 162.814 576.396 163.786C578.936 165.747 580.592 168.637 581 171.82C583.329 189.848 590.255 206.974 601.113 221.553C611.97 236.132 626.395 247.674 643 255.07ZM816 154.95C816.179 161.95 815.791 168.953 814.84 175.89C814.78 176.29 814.73 176.7 814.67 177.1C814.209 180.253 812.522 183.097 809.975 185.013C807.428 186.929 804.228 187.761 801.07 187.33H800.96C799.389 187.101 797.879 186.565 796.515 185.752C795.151 184.938 793.961 183.865 793.013 182.591C792.065 181.318 791.377 179.87 790.989 178.331C790.6 176.791 790.519 175.191 790.75 173.62L790.89 172.62C791.661 166.988 791.975 161.303 791.83 155.62C791.79 152.441 793.004 149.374 795.208 147.083C797.413 144.793 800.431 143.463 803.609 143.381C806.787 143.3 809.87 144.473 812.189 146.648C814.508 148.822 815.877 151.823 816 155V154.95ZM654.7 57.2398C648.95 59.0298 643.362 61.3081 638 64.0498C635.141 65.4993 631.825 65.7564 628.777 64.7648C625.729 63.7732 623.199 61.6138 621.74 58.7598C620.286 55.9068 620.023 52.5935 621.01 49.5471C621.996 46.5006 624.15 43.9697 627 42.5098C633.596 39.1472 640.463 36.3473 647.53 34.1398C649.061 33.6156 650.681 33.4038 652.295 33.5168C653.91 33.6299 655.485 34.0655 656.927 34.798C658.37 35.5305 659.651 36.5449 660.695 37.7812C661.739 39.0175 662.524 40.4506 663.005 41.9958C663.485 43.541 663.65 45.1668 663.491 46.777C663.332 48.3872 662.852 49.9492 662.078 51.3705C661.305 52.7918 660.255 54.0435 658.989 55.0517C657.723 56.0598 656.268 56.8039 654.71 57.2398H654.7ZM700.24 53.4698C695.773 52.8476 691.27 52.5135 686.76 52.4698C685.124 52.5335 683.492 52.2641 681.963 51.6781C680.434 51.0921 679.04 50.2016 677.866 49.0607C676.691 47.9198 675.761 46.5522 675.131 45.0409C674.501 43.5296 674.184 41.9061 674.201 40.2688C674.217 38.6316 674.566 37.0146 675.226 35.5162C675.886 34.0177 676.843 32.6689 678.04 31.5515C679.237 30.4342 680.648 29.5716 682.188 29.0161C683.728 28.4606 685.366 28.2237 687 28.3198C692.543 28.3698 698.078 28.7706 703.57 29.5198C722.919 32.114 741.43 39.0536 757.716 49.8186C774.002 60.5836 787.641 74.8948 797.61 91.6798C798.457 93.0439 799.024 94.563 799.278 96.1485C799.531 97.734 799.467 99.3541 799.087 100.914C798.708 102.475 798.022 103.944 797.069 105.236C796.115 106.528 794.914 107.617 793.536 108.44C792.157 109.263 790.628 109.803 789.038 110.028C787.448 110.254 785.83 110.161 784.276 109.754C782.723 109.347 781.266 108.635 779.991 107.659C778.716 106.683 777.648 105.463 776.85 104.07C768.727 90.4011 757.615 78.7484 744.347 69.9853C731.08 61.2221 716 55.5759 700.24 53.4698ZM708.09 180.47C706.969 181.595 705.636 182.488 704.169 183.097C702.702 183.707 701.129 184.02 699.54 184.02C697.951 184.02 696.378 183.707 694.911 183.097C693.444 182.488 692.111 181.595 690.99 180.47L676.75 166.22C675.594 165.105 674.672 163.77 674.037 162.295C673.403 160.819 673.069 159.232 673.055 157.626C673.041 156.019 673.347 154.427 673.955 152.94C674.563 151.453 675.462 150.103 676.598 148.968C677.734 147.832 679.085 146.934 680.572 146.327C682.059 145.719 683.652 145.414 685.258 145.429C686.864 145.445 688.451 145.78 689.926 146.415C691.402 147.05 692.735 147.973 693.85 149.13L708.09 163.38C710.351 165.645 711.621 168.714 711.621 171.915C711.621 175.115 710.351 178.185 708.09 180.45V180.47ZM812.75 285.12C810.479 287.38 807.405 288.65 804.2 288.65C800.996 288.65 797.921 287.38 795.65 285.12L716.65 206.12C714.452 203.838 713.237 200.785 713.266 197.617C713.296 194.449 714.568 191.419 716.809 189.179C719.05 186.94 722.081 185.669 725.249 185.641C728.417 185.613 731.47 186.83 733.75 189.03L812.75 268.03C815.013 270.298 816.283 273.371 816.283 276.575C816.283 279.779 815.013 282.852 812.75 285.12Z" fill="white" stroke="white" stroke-miterlimit="10"/>
</g>
<defs>
<clipPath id="clip0">
<rect width="1777.16" height="316.68" fill="white" transform="translate(0 0.679932)"/>
</clipPath>
</defs>
</svg>
