<svg width="316" height="316" viewBox="0 0 316 316" fill="none" xmlns="http://www.w3.org/2000/svg">
<g clip-path="url(#clip0)">
<path d="M303.172 246.36L292.716 235.903C299.491 224.15 304.728 211.574 308.296 198.483C313.726 178.584 315.187 157.808 312.596 137.343C310.005 116.878 303.411 97.1244 293.193 79.2102C282.974 61.2961 269.331 45.5723 253.041 32.9368C236.751 20.3012 218.135 11.0014 198.254 5.56839C114.799 -17.2525 28.3421 32.1512 5.54429 115.711C-5.42004 155.899 0.0127678 198.801 20.6476 234.98C41.2825 271.158 75.4291 297.649 115.576 308.626C129.131 312.342 143.12 314.232 157.174 314.244C180.685 314.231 203.886 308.878 225.03 298.588L160.235 233.727C144.202 234.428 128.354 230.071 114.927 221.271C101.5 212.471 91.1729 199.674 85.4022 184.683C79.6315 169.693 78.7088 153.268 82.7642 137.724C86.8197 122.181 95.6486 108.305 108.005 98.0542C120.361 87.8032 135.622 81.695 151.632 80.5916C167.643 79.4881 183.595 83.445 197.239 91.9039C210.882 100.363 221.527 112.897 227.673 127.737C233.818 142.577 235.153 158.974 231.489 174.615L184.638 127.716C180.907 123.981 176.477 121.018 171.603 118.997C166.728 116.976 161.504 115.936 156.227 115.936C150.951 115.936 145.727 116.976 140.852 118.997C135.977 121.018 131.548 123.981 127.817 127.716C120.283 135.258 116.049 145.488 116.049 156.154C116.049 166.821 120.283 177.051 127.817 184.593L246.352 303.228C253.887 310.77 264.106 315.008 274.762 315.008C285.418 315.008 295.638 310.77 303.172 303.228C310.707 295.685 314.94 285.456 314.94 274.789C314.94 264.122 310.707 253.893 303.172 246.35V246.36ZM36.8054 108.138C39.5638 101.288 42.8986 94.6849 46.7738 88.4002C47.5992 87.0361 48.6866 85.8495 49.9731 84.9088C51.2596 83.9681 52.7196 83.2921 54.2687 82.9199C55.8179 82.5476 57.4254 82.4865 58.9982 82.7401C60.5711 82.9936 62.0782 83.5569 63.4322 84.3972C64.7862 85.2374 65.9604 86.3381 66.8868 87.6355C67.8132 88.933 68.4734 90.4014 68.8293 91.9558C69.1852 93.5103 69.2296 95.1199 68.9601 96.6917C68.6905 98.2635 68.1124 99.7661 67.259 101.113C64.0959 106.228 61.3714 111.602 59.1148 117.178C58.1093 119.664 56.3054 121.745 53.9877 123.091C51.67 124.437 48.9706 124.972 46.3153 124.612C45.3234 124.473 44.3524 124.211 43.4244 123.834C41.96 123.239 40.627 122.36 39.5017 121.249C38.3764 120.138 37.4809 118.816 36.8662 117.359C36.2515 115.901 35.9297 114.336 35.9193 112.754C35.9089 111.172 36.21 109.603 36.8054 108.138ZM131.934 272.464C132.11 270.89 132.595 269.366 133.359 267.979C134.124 266.593 135.154 265.371 136.391 264.383C137.628 263.395 139.047 262.661 140.568 262.222C142.088 261.784 143.68 261.649 145.252 261.827C151.225 262.505 157.245 262.665 163.245 262.306C164.848 262.17 166.461 262.357 167.99 262.855C169.52 263.353 170.934 264.153 172.15 265.207C173.365 266.26 174.358 267.547 175.07 268.991C175.781 270.435 176.196 272.006 176.292 273.613C176.387 275.22 176.16 276.83 175.624 278.348C175.088 279.866 174.254 281.261 173.171 282.451C172.088 283.641 170.778 284.602 169.318 285.278C167.858 285.953 166.278 286.329 164.671 286.384C157.297 286.821 149.9 286.624 142.561 285.795H142.272C139.149 285.367 136.319 283.732 134.387 281.24C132.454 278.748 131.574 275.598 131.934 272.464ZM114.071 253.345C116.684 254.55 118.782 256.65 119.984 259.267C121.186 261.884 121.415 264.844 120.628 267.615C119.841 270.385 118.09 272.783 115.692 274.374C113.295 275.966 110.407 276.648 107.551 276.296C106.425 276.144 105.327 275.828 104.292 275.358C83.956 266.301 66.2889 252.161 52.9882 234.296C39.6876 216.432 31.2004 195.443 28.3421 173.347C28.1405 171.775 28.2503 170.178 28.6652 168.648C29.0801 167.118 29.792 165.685 30.7603 164.43C32.7157 161.896 35.5966 160.244 38.7691 159.836C40.34 159.635 41.9353 159.745 43.4637 160.16C44.9922 160.575 46.424 161.288 47.6773 162.257C50.2085 164.214 51.8593 167.098 52.2664 170.274C54.588 188.263 61.4921 205.353 72.3155 219.901C83.1389 234.448 97.5178 245.965 114.071 253.345ZM286.525 153.44C286.703 160.425 286.316 167.413 285.369 174.335C285.309 174.734 285.259 175.143 285.199 175.543C284.74 178.689 283.058 181.527 280.519 183.439C277.98 185.35 274.79 186.181 271.642 185.751H271.533C269.966 185.522 268.461 184.987 267.101 184.176C265.742 183.364 264.556 182.293 263.611 181.022C262.665 179.752 261.98 178.307 261.593 176.771C261.205 175.235 261.125 173.637 261.355 172.07L261.494 171.072C262.263 165.452 262.576 159.779 262.431 154.109C262.391 150.937 263.601 147.876 265.799 145.591C267.996 143.305 271.005 141.978 274.173 141.896C277.341 141.815 280.414 142.986 282.726 145.156C285.038 147.326 286.403 150.32 286.525 153.49V153.44ZM125.734 55.94C120.002 57.7261 114.432 59.9995 109.087 62.7354C107.674 63.4578 106.132 63.8943 104.551 64.0199C102.969 64.1456 101.378 63.9579 99.8692 63.4677C98.3601 62.9774 96.9624 62.1942 95.7559 61.1628C94.5495 60.1314 93.5579 58.872 92.838 57.4567C91.3916 54.605 91.1356 51.295 92.1263 48.2544C93.117 45.2137 95.2734 42.6913 98.1213 41.2416C104.7 37.8862 111.549 35.0922 118.597 32.8896C120.123 32.3665 121.738 32.1551 123.347 32.2679C124.956 32.3808 126.526 32.8155 127.964 33.5463C129.402 34.2772 130.68 35.2895 131.72 36.5231C132.761 37.7568 133.544 39.1869 134.022 40.7287C134.501 42.2705 134.666 43.8929 134.508 45.4996C134.349 47.1064 133.87 48.665 133.099 50.0833C132.328 51.5015 131.281 52.7506 130.019 53.7566C128.758 54.7625 127.307 55.505 125.754 55.94H125.734ZM171.13 52.1781C166.677 51.5572 162.189 51.2239 157.693 51.1802C156.11 51.1685 154.545 50.8447 153.088 50.2276C151.63 49.6104 150.308 48.7119 149.197 47.5833C148.086 46.4547 147.209 45.1181 146.614 43.6499C146.019 42.1817 145.719 40.6107 145.731 39.0264C145.742 37.4421 146.066 35.8757 146.682 34.4165C147.299 32.9574 148.197 31.634 149.324 30.5221C150.451 29.4102 151.787 28.5315 153.253 27.9361C154.72 27.3407 156.29 27.0404 157.872 27.0522C163.401 27.1017 168.921 27.5016 174.4 28.2496C193.7 30.8344 212.164 37.7603 228.408 48.5078C244.652 59.2553 258.254 73.5454 268.193 90.3061C269.038 91.6671 269.603 93.183 269.856 94.7651C270.108 96.3472 270.044 97.9639 269.666 99.5207C269.288 101.078 268.604 102.543 267.653 103.833C266.703 105.122 265.506 106.209 264.131 107.03C262.757 107.851 261.233 108.39 259.648 108.615C258.064 108.84 256.45 108.747 254.902 108.341C253.353 107.935 251.901 107.225 250.63 106.251C249.359 105.277 248.294 104.06 247.499 102.669C239.401 89.03 228.324 77.4024 215.098 68.658C201.872 59.9137 186.841 54.2796 171.13 52.1781ZM178.956 178.905C177.838 180.028 176.509 180.919 175.047 181.527C173.584 182.135 172.016 182.448 170.432 182.448C168.849 182.448 167.281 182.135 165.818 181.527C164.356 180.919 163.027 180.028 161.909 178.905L147.714 164.686C145.455 162.425 144.186 159.357 144.186 156.159C144.186 152.961 145.455 149.894 147.714 147.633C149.974 145.371 153.038 144.101 156.232 144.101C159.427 144.101 162.491 145.371 164.75 147.633L178.956 161.852C181.21 164.112 182.476 167.175 182.476 170.369C182.476 173.562 181.21 176.625 178.956 178.885V178.905ZM283.285 283.331C281.021 285.586 277.957 286.853 274.762 286.853C271.568 286.853 268.503 285.586 266.239 283.331L187.489 204.5C185.229 202.239 183.96 199.172 183.96 195.974C183.96 192.776 185.229 189.708 187.489 187.447C189.748 185.186 192.812 183.915 196.007 183.915C199.201 183.915 202.265 185.186 204.525 187.447L283.275 266.277C285.532 268.539 286.8 271.605 286.802 274.802C286.804 277.999 285.539 281.066 283.285 283.331Z" fill="white"/>
</g>
<defs>
<clipPath id="clip0">
<rect width="316" height="316" fill="white"/>
</clipPath>
</defs>
</svg>
